<svg version="1.1" xmlns="http://www.w3.org/2000/svg" xmlns:xlink="http://www.w3.org/1999/xlink" stroke-linecap="round" stroke-linejoin="round" stroke-width="0" fill-rule="evenodd" clip-rule="evenodd" id="atUKypFE3zCdUizfNEXS_bottom" viewBox="46355 -131445 238760 86360" width="238.76mm" height="86.36mm" class="w-100 h-100"><defs><style>.atUKypFE3zCdUizfNEXS_fr4 {color: #666666;}
.atUKypFE3zCdUizfNEXS_cu {color: #cccccc;}
.atUKypFE3zCdUizfNEXS_cf {color: #cc9933;}
.atUKypFE3zCdUizfNEXS_sm {color: #004200; opacity: 0.75;}
.atUKypFE3zCdUizfNEXS_ss {color: #ffffff;}
.atUKypFE3zCdUizfNEXS_sp {color: #999999;}
.atUKypFE3zCdUizfNEXS_out {color: #000000;}</style><rect x="-850" y="-850" width="1700" height="1700" rx="850" ry="850" id="Go7AUME3zTt_MWmdAow6_pad-10"/><rect x="-850" y="-850" width="1700" height="1700" id="Go7AUME3zTt_MWmdAow6_pad-11"/><circle cx="0" cy="0" r="400" id="Go7AUME3zTt_MWmdAow6_pad-12"/><rect x="-850" y="-850" width="1700" height="1700" rx="850" ry="850" id="VQgMb6YZPM9F75-rDAuK_pad-10"/><rect x="-850" y="-850" width="1700" height="1700" id="VQgMb6YZPM9F75-rDAuK_pad-11"/><rect x="-750" y="-750" width="1500" height="1500" rx="750" ry="750" id="VQgMb6YZPM9F75-rDAuK_pad-12"/><rect x="-900" y="-900" width="1800" height="1800" rx="900" ry="900" id="VQgMb6YZPM9F75-rDAuK_pad-13"/><circle cx="0" cy="0" r="1100" id="VQgMb6YZPM9F75-rDAuK_pad-14"/><circle cx="0" cy="0" r="7.85" id="m9Vz9ETyzJ_MMEA85_zg_pad-1"/><circle cx="0" cy="0" r="20.1" id="m9Vz9ETyzJ_MMEA85_zg_pad-2"/><circle cx="0" cy="0" r="29.55" id="nBSaqpKtZQ31gjwFKPBb_pad-1"/><circle cx="0" cy="0" r="35.45" id="nBSaqpKtZQ31gjwFKPBb_pad-2"/><circle cx="0" cy="0" r="43.3" id="nBSaqpKtZQ31gjwFKPBb_pad-3"/><g id="atUKypFE3zCdUizfNEXS_bottom_copper"><use xlink:href="#Go7AUME3zTt_MWmdAow6_pad-10" x="109220" y="-95020"/><use xlink:href="#Go7AUME3zTt_MWmdAow6_pad-11" x="106680" y="-95020"/><use xlink:href="#Go7AUME3zTt_MWmdAow6_pad-10" x="104140" y="-95020"/><use xlink:href="#Go7AUME3zTt_MWmdAow6_pad-10" x="115570" y="-46990"/><use xlink:href="#Go7AUME3zTt_MWmdAow6_pad-10" x="115570" y="-49530"/><use xlink:href="#Go7AUME3zTt_MWmdAow6_pad-11" x="115570" y="-52070"/><use xlink:href="#Go7AUME3zTt_MWmdAow6_pad-10" x="115570" y="-54610"/><use xlink:href="#Go7AUME3zTt_MWmdAow6_pad-10" x="115570" y="-57150"/><use xlink:href="#Go7AUME3zTt_MWmdAow6_pad-10" x="115570" y="-59690"/><use xlink:href="#Go7AUME3zTt_MWmdAow6_pad-10" x="115570" y="-62230"/><use xlink:href="#Go7AUME3zTt_MWmdAow6_pad-11" x="115570" y="-64770"/><use xlink:href="#Go7AUME3zTt_MWmdAow6_pad-10" x="115570" y="-67310"/><use xlink:href="#Go7AUME3zTt_MWmdAow6_pad-10" x="115570" y="-69850"/><use xlink:href="#Go7AUME3zTt_MWmdAow6_pad-10" x="115570" y="-72390"/><use xlink:href="#Go7AUME3zTt_MWmdAow6_pad-10" x="115570" y="-74930"/><use xlink:href="#Go7AUME3zTt_MWmdAow6_pad-11" x="115570" y="-77470"/><use xlink:href="#Go7AUME3zTt_MWmdAow6_pad-10" x="115570" y="-80010"/><use xlink:href="#Go7AUME3zTt_MWmdAow6_pad-10" x="115570" y="-82550"/><use xlink:href="#Go7AUME3zTt_MWmdAow6_pad-10" x="115570" y="-85090"/><use xlink:href="#Go7AUME3zTt_MWmdAow6_pad-10" x="115570" y="-87630"/><use xlink:href="#Go7AUME3zTt_MWmdAow6_pad-11" x="115570" y="-90170"/><use xlink:href="#Go7AUME3zTt_MWmdAow6_pad-10" x="115570" y="-92710"/><use xlink:href="#Go7AUME3zTt_MWmdAow6_pad-10" x="115570" y="-95250"/><use xlink:href="#Go7AUME3zTt_MWmdAow6_pad-10" x="97790" y="-95250"/><use xlink:href="#Go7AUME3zTt_MWmdAow6_pad-10" x="97790" y="-92710"/><use xlink:href="#Go7AUME3zTt_MWmdAow6_pad-11" x="97790" y="-90170"/><use xlink:href="#Go7AUME3zTt_MWmdAow6_pad-10" x="97790" y="-87630"/><use xlink:href="#Go7AUME3zTt_MWmdAow6_pad-10" x="97790" y="-85090"/><use xlink:href="#Go7AUME3zTt_MWmdAow6_pad-10" x="97790" y="-82550"/><use xlink:href="#Go7AUME3zTt_MWmdAow6_pad-10" x="97790" y="-80010"/><use xlink:href="#Go7AUME3zTt_MWmdAow6_pad-11" x="97790" y="-77470"/><use xlink:href="#Go7AUME3zTt_MWmdAow6_pad-10" x="97790" y="-74930"/><use xlink:href="#Go7AUME3zTt_MWmdAow6_pad-10" x="97790" y="-72390"/><use xlink:href="#Go7AUME3zTt_MWmdAow6_pad-10" x="97790" y="-69850"/><use xlink:href="#Go7AUME3zTt_MWmdAow6_pad-10" x="97790" y="-67310"/><use xlink:href="#Go7AUME3zTt_MWmdAow6_pad-11" x="97790" y="-64770"/><use xlink:href="#Go7AUME3zTt_MWmdAow6_pad-10" x="97790" y="-62230"/><use xlink:href="#Go7AUME3zTt_MWmdAow6_pad-10" x="97790" y="-59690"/><use xlink:href="#Go7AUME3zTt_MWmdAow6_pad-10" x="97790" y="-57150"/><use xlink:href="#Go7AUME3zTt_MWmdAow6_pad-10" x="97790" y="-54610"/><use xlink:href="#Go7AUME3zTt_MWmdAow6_pad-11" x="97790" y="-52070"/><use xlink:href="#Go7AUME3zTt_MWmdAow6_pad-10" x="97790" y="-49530"/><use xlink:href="#Go7AUME3zTt_MWmdAow6_pad-10" x="97790" y="-46990"/><use xlink:href="#Go7AUME3zTt_MWmdAow6_pad-12" x="71403.001" y="-86389.001"/><use xlink:href="#Go7AUME3zTt_MWmdAow6_pad-12" x="256997.2" y="-87655.4"/><use xlink:href="#Go7AUME3zTt_MWmdAow6_pad-12" x="83235.8" y="-94183.2"/><path d="M 96843.368 -45836.525 96636.525 -46043.368 96474.01 -46286.589 96362.068 -46556.842 96305 -46843.74 96305 -47136.26 96362.068 -47423.158 96474.01 -47693.411 96636.525 -47936.632 96843.368 -48143.475 97017.76 -48260 96843.368 -48376.525 96636.525 -48583.368 96474.01 -48826.589 96362.068 -49096.842 96305 -49383.74 96305 -49676.26 96362.068 -49963.158 96474.01 -50233.411 96636.525 -50476.632 96768.38 -50608.487 96695.82 -50630.498 96585.506 -50689.463 96488.815 -50768.815 96409.463 -50865.506 96350.498 -50975.82 96314.188 -51095.518 96301.928 -51220 96305 -51784.25 96463.75 -51943 97663 -51943 97663 -51923 97917 -51923 97917 -51943 99116.25 -51943 99275 -51784.25 99278.072 -51220 99265.812 -51095.518 99229.502 -50975.82 99170.537 -50865.506 99091.185 -50768.815 98994.494 -50689.463 98884.18 -50630.498 98811.62 -50608.487 98943.475 -50476.632 99105.99 -50233.411 99197.042 -50013.589 102870 -50013.589 102870 -50286.411 102923.225 -50553.989 103027.629 -50806.043 103179.201 -51032.886 103372.114 -51225.799 103598.957 -51377.371 103851.011 -51481.775 104118.589 -51535 104391.411 -51535 104658.989 -51481.775 104911.043 -51377.371 105137.886 -51225.799 105330.799 -51032.886 105482.371 -50806.043 105586.775 -50553.989 105640 -50286.411 105640 -50013.589 107720 -50013.589 107720 -50286.411 107773.225 -50553.989 107877.629 -50806.043 108029.201 -51032.886 108222.114 -51225.799 108448.957 -51377.371 108701.011 -51481.775 108968.589 -51535 109241.411 -51535 109508.989 -51481.775 109761.043 -51377.371 109987.886 -51225.799 110180.799 -51032.886 110332.371 -50806.043 110436.775 -50553.989 110490 -50286.411 110490 -50013.589 110436.775 -49746.011 110332.371 -49493.957 110180.799 -49267.114 109987.886 -49074.201 109761.043 -48922.629 109508.989 -48818.225 109241.411 -48765 108968.589 -48765 108701.011 -48818.225 108448.957 -48922.629 108222.114 -49074.201 108029.201 -49267.114 107877.629 -49493.957 107773.225 -49746.011 107720 -50013.589 105640 -50013.589 105586.775 -49746.011 105482.371 -49493.957 105330.799 -49267.114 105137.886 -49074.201 104911.043 -48922.629 104658.989 -48818.225 104391.411 -48765 104118.589 -48765 103851.011 -48818.225 103598.957 -48922.629 103372.114 -49074.201 103179.201 -49267.114 103027.629 -49493.957 102923.225 -49746.011 102870 -50013.589 99197.042 -50013.589 99217.932 -49963.158 99275 -49676.26 99275 -49383.74 99217.932 -49096.842 99105.99 -48826.589 98943.475 -48583.368 98736.632 -48376.525 98562.24 -48260 98736.632 -48143.475 98943.475 -47936.632 99105.99 -47693.411 99217.932 -47423.158 99275 -47136.26 99275 -46843.74 99217.932 -46556.842 99105.99 -46286.589 98943.475 -46043.368 98736.632 -45836.525 98599.655 -45745 103263.396 -45745 103227.905 -45759.701 102976.495 -45927.688 102762.688 -46141.495 102594.701 -46392.905 102478.989 -46672.257 102420 -46968.816 102420 -47271.184 102478.989 -47567.743 102594.701 -47847.095 102762.688 -48098.505 102976.495 -48312.312 103227.905 -48480.299 103507.257 -48596.011 103803.816 -48655 104106.184 -48655 104402.743 -48596.011 104682.095 -48480.299 104933.505 -48312.312 105147.312 -48098.505 105315.299 -47847.095 105431.011 -47567.743 105490 -47271.184 105490 -46968.816 105431.011 -46672.257 105315.299 -46392.905 105147.312 -46141.495 104933.505 -45927.688 104682.095 -45759.701 104646.604 -45745 108713.396 -45745 108677.905 -45759.701 108426.495 -45927.688 108212.688 -46141.495 108044.701 -46392.905 107928.989 -46672.257 107870 -46968.816 107870 -47271.184 107928.989 -47567.743 108044.701 -47847.095 108212.688 -48098.505 108426.495 -48312.312 108677.905 -48480.299 108957.257 -48596.011 109253.816 -48655 109556.184 -48655 109852.743 -48596.011 110132.095 -48480.299 110383.505 -48312.312 110597.312 -48098.505 110765.299 -47847.095 110881.011 -47567.743 110940 -47271.184 110940 -46968.816 110881.011 -46672.257 110765.299 -46392.905 110597.312 -46141.495 110383.505 -45927.688 110132.095 -45759.701 110096.604 -45745 114760.345 -45745 114623.368 -45836.525 114416.525 -46043.368 114254.01 -46286.589 114142.068 -46556.842 114085 -46843.74 114085 -47136.26 114142.068 -47423.158 114254.01 -47693.411 114416.525 -47936.632 114623.368 -48143.475 114797.76 -48260 114623.368 -48376.525 114416.525 -48583.368 114254.01 -48826.589 114142.068 -49096.842 114085 -49383.74 114085 -49676.26 114142.068 -49963.158 114254.01 -50233.411 114416.525 -50476.632 114548.38 -50608.487 114475.82 -50630.498 114365.506 -50689.463 114268.815 -50768.815 114189.463 -50865.506 114130.498 -50975.82 114094.188 -51095.518 114081.928 -51220 114085 -51784.25 114243.75 -51943 115443 -51943 115443 -51923 115697 -51923 115697 -51943 116896.25 -51943 117055 -51784.25 117058.072 -51220 117045.812 -51095.518 117009.502 -50975.82 116950.537 -50865.506 116871.185 -50768.815 116774.494 -50689.463 116664.18 -50630.498 116591.62 -50608.487 116723.475 -50476.632 116885.99 -50233.411 116985.108 -49994.117 125900 -49994.117 125900 -50335.883 125966.675 -50671.081 126097.463 -50986.831 126287.337 -51270.998 126529.002 -51512.663 126813.169 -51702.537 127128.919 -51833.325 127464.117 -51900 127805.883 -51900 128141.081 -51833.325 128456.831 -51702.537 128740.998 -51512.663 128982.663 -51270.998 129172.537 -50986.831 129303.325 -50671.081 129370 -50335.883 129370 -49994.117 164000 -49994.117 164000 -50335.883 164066.675 -50671.081 164197.463 -50986.831 164387.337 -51270.998 164629.002 -51512.663 164913.169 -51702.537 165228.919 -51833.325 165564.117 -51900 165905.883 -51900 166241.081 -51833.325 166556.831 -51702.537 166840.998 -51512.663 167082.663 -51270.998 167272.537 -50986.831 167403.325 -50671.081 167470 -50335.883 167470 -49994.117 202100 -49994.117 202100 -50335.883 202166.675 -50671.081 202297.463 -50986.831 202487.337 -51270.998 202729.002 -51512.663 203013.169 -51702.537 203328.919 -51833.325 203664.117 -51900 204005.883 -51900 204341.081 -51833.325 204656.831 -51702.537 204940.998 -51512.663 205182.663 -51270.998 205372.537 -50986.831 205503.325 -50671.081 205570 -50335.883 205570 -49994.117 240200 -49994.117 240200 -50335.883 240266.675 -50671.081 240397.463 -50986.831 240587.337 -51270.998 240829.002 -51512.663 241113.169 -51702.537 241428.919 -51833.325 241764.117 -51900 242105.883 -51900 242441.081 -51833.325 242756.831 -51702.537 243040.998 -51512.663 243282.663 -51270.998 243472.537 -50986.831 243603.325 -50671.081 243670 -50335.883 243670 -49994.117 278300 -49994.117 278300 -50335.883 278366.675 -50671.081 278497.463 -50986.831 278687.337 -51270.998 278929.002 -51512.663 279213.169 -51702.537 279528.919 -51833.325 279864.117 -51900 280205.883 -51900 280541.081 -51833.325 280856.831 -51702.537 281140.998 -51512.663 281382.663 -51270.998 281572.537 -50986.831 281703.325 -50671.081 281770 -50335.883 281770 -49994.117 281703.325 -49658.919 281572.537 -49343.169 281382.663 -49059.002 281140.998 -48817.337 280856.831 -48627.463 280541.081 -48496.675 280205.883 -48430 279864.117 -48430 279528.919 -48496.675 279213.169 -48627.463 278929.002 -48817.337 278687.337 -49059.002 278497.463 -49343.169 278366.675 -49658.919 278300 -49994.117 243670 -49994.117 243603.325 -49658.919 243472.537 -49343.169 243282.663 -49059.002 243040.998 -48817.337 242756.831 -48627.463 242441.081 -48496.675 242105.883 -48430 241764.117 -48430 241428.919 -48496.675 241113.169 -48627.463 240829.002 -48817.337 240587.337 -49059.002 240397.463 -49343.169 240266.675 -49658.919 240200 -49994.117 205570 -49994.117 205503.325 -49658.919 205372.537 -49343.169 205182.663 -49059.002 204940.998 -48817.337 204656.831 -48627.463 204341.081 -48496.675 204005.883 -48430 203664.117 -48430 203328.919 -48496.675 203013.169 -48627.463 202729.002 -48817.337 202487.337 -49059.002 202297.463 -49343.169 202166.675 -49658.919 202100 -49994.117 167470 -49994.117 167403.325 -49658.919 167272.537 -49343.169 167082.663 -49059.002 166840.998 -48817.337 166556.831 -48627.463 166241.081 -48496.675 165905.883 -48430 165564.117 -48430 165228.919 -48496.675 164913.169 -48627.463 164629.002 -48817.337 164387.337 -49059.002 164197.463 -49343.169 164066.675 -49658.919 164000 -49994.117 129370 -49994.117 129303.325 -49658.919 129172.537 -49343.169 128982.663 -49059.002 128740.998 -48817.337 128456.831 -48627.463 128141.081 -48496.675 127805.883 -48430 127464.117 -48430 127128.919 -48496.675 126813.169 -48627.463 126529.002 -48817.337 126287.337 -49059.002 126097.463 -49343.169 125966.675 -49658.919 125900 -49994.117 116985.108 -49994.117 116997.932 -49963.158 117055 -49676.26 117055 -49383.74 116997.932 -49096.842 116885.99 -48826.589 116723.475 -48583.368 116516.632 -48376.525 116342.24 -48260 116516.632 -48143.475 116723.475 -47936.632 116885.99 -47693.411 116997.932 -47423.158 117055 -47136.26 117055 -46843.74 116997.932 -46556.842 116885.99 -46286.589 116723.475 -46043.368 116516.632 -45836.525 116379.655 -45745 280005.608 -45745 280817.249 -45817.437 281574.774 -46024.672 282283.625 -46362.777 282921.404 -46821.067 283467.946 -47385.055 283905.977 -48036.913 284221.651 -48756.038 284406.206 -49524.768 284455.001 -50189.221 284455 -126335.608 284382.563 -127147.249 284175.328 -127904.774 283837.221 -128613.627 283378.928 -129251.41 282814.945 -129797.946 282163.085 -130235.978 281443.963 -130551.651 280675.232 -130736.206 280010.792 -130785 51464.392 -130785 50652.751 -130712.563 49895.226 -130505.328 49186.373 -130167.221 48548.59 -129708.928 48002.054 -129144.945 47564.022 -128493.085 47248.349 -127773.963 47063.794 -127005.232 47015 -126340.792 47015 -126194.117 49700 -126194.117 49700 -126535.883 49766.675 -126871.081 49897.463 -127186.831 50087.337 -127470.998 50329.002 -127712.663 50613.169 -127902.537 50928.919 -128033.325 51264.117 -128100 51605.883 -128100 51941.081 -128033.325 52256.831 -127902.537 52540.998 -127712.663 52782.663 -127470.998 52972.537 -127186.831 53103.325 -126871.081 53170 -126535.883 53170 -126194.117 87800 -126194.117 87800 -126535.883 87866.675 -126871.081 87997.463 -127186.831 88187.337 -127470.998 88429.002 -127712.663 88713.169 -127902.537 89028.919 -128033.325 89364.117 -128100 89705.883 -128100 90041.081 -128033.325 90356.831 -127902.537 90640.998 -127712.663 90882.663 -127470.998 91072.537 -127186.831 91203.325 -126871.081 91270 -126535.883 91270 -126194.117 125900 -126194.117 125900 -126535.883 125966.675 -126871.081 126097.463 -127186.831 126287.337 -127470.998 126529.002 -127712.663 126813.169 -127902.537 127128.919 -128033.325 127464.117 -128100 127805.883 -128100 128141.081 -128033.325 128456.831 -127902.537 128740.998 -127712.663 128982.663 -127470.998 129172.537 -127186.831 129303.325 -126871.081 129370 -126535.883 129370 -126194.117 164000 -126194.117 164000 -126535.883 164066.675 -126871.081 164197.463 -127186.831 164387.337 -127470.998 164629.002 -127712.663 164913.169 -127902.537 165228.919 -128033.325 165564.117 -128100 165905.883 -128100 166241.081 -128033.325 166556.831 -127902.537 166840.998 -127712.663 167082.663 -127470.998 167272.537 -127186.831 167403.325 -126871.081 167470 -126535.883 167470 -126194.117 202100 -126194.117 202100 -126535.883 202166.675 -126871.081 202297.463 -127186.831 202487.337 -127470.998 202729.002 -127712.663 203013.169 -127902.537 203328.919 -128033.325 203664.117 -128100 204005.883 -128100 204341.081 -128033.325 204656.831 -127902.537 204940.998 -127712.663 205182.663 -127470.998 205372.537 -127186.831 205503.325 -126871.081 205570 -126535.883 205570 -126194.117 240200 -126194.117 240200 -126535.883 240266.675 -126871.081 240397.463 -127186.831 240587.337 -127470.998 240829.002 -127712.663 241113.169 -127902.537 241428.919 -128033.325 241764.117 -128100 242105.883 -128100 242441.081 -128033.325 242756.831 -127902.537 243040.998 -127712.663 243282.663 -127470.998 243472.537 -127186.831 243603.325 -126871.081 243670 -126535.883 243670 -126194.117 278300 -126194.117 278300 -126535.883 278366.675 -126871.081 278497.463 -127186.831 278687.337 -127470.998 278929.002 -127712.663 279213.169 -127902.537 279528.919 -128033.325 279864.117 -128100 280205.883 -128100 280541.081 -128033.325 280856.831 -127902.537 281140.998 -127712.663 281382.663 -127470.998 281572.537 -127186.831 281703.325 -126871.081 281770 -126535.883 281770 -126194.117 281703.325 -125858.919 281572.537 -125543.169 281382.663 -125259.002 281140.998 -125017.337 280856.831 -124827.463 280541.081 -124696.675 280205.883 -124630 279864.117 -124630 279528.919 -124696.675 279213.169 -124827.463 278929.002 -125017.337 278687.337 -125259.002 278497.463 -125543.169 278366.675 -125858.919 278300 -126194.117 243670 -126194.117 243603.325 -125858.919 243472.537 -125543.169 243282.663 -125259.002 243040.998 -125017.337 242756.831 -124827.463 242441.081 -124696.675 242105.883 -124630 241764.117 -124630 241428.919 -124696.675 241113.169 -124827.463 240829.002 -125017.337 240587.337 -125259.002 240397.463 -125543.169 240266.675 -125858.919 240200 -126194.117 205570 -126194.117 205503.325 -125858.919 205372.537 -125543.169 205182.663 -125259.002 204940.998 -125017.337 204656.831 -124827.463 204341.081 -124696.675 204005.883 -124630 203664.117 -124630 203328.919 -124696.675 203013.169 -124827.463 202729.002 -125017.337 202487.337 -125259.002 202297.463 -125543.169 202166.675 -125858.919 202100 -126194.117 167470 -126194.117 167403.325 -125858.919 167272.537 -125543.169 167082.663 -125259.002 166840.998 -125017.337 166556.831 -124827.463 166241.081 -124696.675 165905.883 -124630 165564.117 -124630 165228.919 -124696.675 164913.169 -124827.463 164629.002 -125017.337 164387.337 -125259.002 164197.463 -125543.169 164066.675 -125858.919 164000 -126194.117 129370 -126194.117 129303.325 -125858.919 129172.537 -125543.169 128982.663 -125259.002 128740.998 -125017.337 128456.831 -124827.463 128141.081 -124696.675 127805.883 -124630 127464.117 -124630 127128.919 -124696.675 126813.169 -124827.463 126529.002 -125017.337 126287.337 -125259.002 126097.463 -125543.169 125966.675 -125858.919 125900 -126194.117 91270 -126194.117 91203.325 -125858.919 91072.537 -125543.169 90882.663 -125259.002 90640.998 -125017.337 90356.831 -124827.463 90041.081 -124696.675 89705.883 -124630 89364.117 -124630 89028.919 -124696.675 88713.169 -124827.463 88429.002 -125017.337 88187.337 -125259.002 87997.463 -125543.169 87866.675 -125858.919 87800 -126194.117 53170 -126194.117 53103.325 -125858.919 52972.537 -125543.169 52782.663 -125259.002 52540.998 -125017.337 52256.831 -124827.463 51941.081 -124696.675 51605.883 -124630 51264.117 -124630 50928.919 -124696.675 50613.169 -124827.463 50329.002 -125017.337 50087.337 -125259.002 49897.463 -125543.169 49766.675 -125858.919 49700 -126194.117 47015 -126194.117 47015 -91020 96301.928 -91020 96314.188 -91144.482 96350.498 -91264.18 96409.463 -91374.494 96488.815 -91471.185 96585.506 -91550.537 96695.82 -91609.502 96768.38 -91631.513 96636.525 -91763.368 96474.01 -92006.589 96362.068 -92276.842 96305 -92563.74 96305 -92856.26 96362.068 -93143.158 96474.01 -93413.411 96636.525 -93656.632 96843.368 -93863.475 97017.76 -93980 96843.368 -94096.525 96636.525 -94303.368 96474.01 -94546.589 96362.068 -94816.842 96305 -95103.74 96305 -95396.26 96362.068 -95683.158 96474.01 -95953.411 96636.525 -96196.632 96843.368 -96403.475 97086.589 -96565.99 97356.842 -96677.932 97643.74 -96735 97936.26 -96735 98223.158 -96677.932 98493.411 -96565.99 98736.632 -96403.475 98943.475 -96196.632 99105.99 -95953.411 99217.932 -95683.158 99275 -95396.26 99275 -95103.74 99229.25 -94873.74 102655 -94873.74 102655 -95166.26 102712.068 -95453.158 102824.01 -95723.411 102986.525 -95966.632 103193.368 -96173.475 103436.589 -96335.99 103706.842 -96447.932 103993.74 -96505 104286.26 -96505 104573.158 -96447.932 104843.411 -96335.99 105086.632 -96173.475 105218.487 -96041.62 105240.498 -96114.18 105299.463 -96224.494 105378.815 -96321.185 105475.506 -96400.537 105585.82 -96459.502 105705.518 -96495.812 105830 -96508.072 107530 -96508.072 107654.482 -96495.812 107774.18 -96459.502 107884.494 -96400.537 107981.185 -96321.185 108060.537 -96224.494 108119.502 -96114.18 108141.513 -96041.62 108273.368 -96173.475 108516.589 -96335.99 108786.842 -96447.932 109073.74 -96505 109366.26 -96505 109653.158 -96447.932 109923.411 -96335.99 110166.632 -96173.475 110373.475 -95966.632 110535.99 -95723.411 110647.932 -95453.158 110705 -95166.26 110705 -94873.74 110647.932 -94586.842 110535.99 -94316.589 110373.475 -94073.368 110166.632 -93866.525 109923.411 -93704.01 109653.158 -93592.068 109366.26 -93535 109073.74 -93535 108786.842 -93592.068 108516.589 -93704.01 108273.368 -93866.525 108141.513 -93998.38 108119.502 -93925.82 108060.537 -93815.506 107981.185 -93718.815 107884.494 -93639.463 107774.18 -93580.498 107654.482 -93544.188 107530 -93531.928 105830 -93531.928 105705.518 -93544.188 105585.82 -93580.498 105475.506 -93639.463 105378.815 -93718.815 105299.463 -93815.506 105240.498 -93925.82 105218.487 -93998.38 105086.632 -93866.525 104843.411 -93704.01 104573.158 -93592.068 104286.26 -93535 103993.74 -93535 103706.842 -93592.068 103436.589 -93704.01 103193.368 -93866.525 102986.525 -94073.368 102824.01 -94316.589 102712.068 -94586.842 102655 -94873.74 99229.25 -94873.74 99217.932 -94816.842 99105.99 -94546.589 98943.475 -94303.368 98736.632 -94096.525 98562.24 -93980 98736.632 -93863.475 98943.475 -93656.632 99105.99 -93413.411 99217.932 -93143.158 99275 -92856.26 99275 -92563.74 99217.932 -92276.842 99105.99 -92006.589 98943.475 -91763.368 98811.62 -91631.513 98884.18 -91609.502 98994.494 -91550.537 99091.185 -91471.185 99170.537 -91374.494 99229.502 -91264.18 99265.812 -91144.482 99278.072 -91020 114081.928 -91020 114094.188 -91144.482 114130.498 -91264.18 114189.463 -91374.494 114268.815 -91471.185 114365.506 -91550.537 114475.82 -91609.502 114548.38 -91631.513 114416.525 -91763.368 114254.01 -92006.589 114142.068 -92276.842 114085 -92563.74 114085 -92856.26 114142.068 -93143.158 114254.01 -93413.411 114416.525 -93656.632 114623.368 -93863.475 114797.76 -93980 114623.368 -94096.525 114416.525 -94303.368 114254.01 -94546.589 114142.068 -94816.842 114085 -95103.74 114085 -95396.26 114142.068 -95683.158 114254.01 -95953.411 114416.525 -96196.632 114623.368 -96403.475 114866.589 -96565.99 115136.842 -96677.932 115423.74 -96735 115716.26 -96735 116003.158 -96677.932 116273.411 -96565.99 116516.632 -96403.475 116723.475 -96196.632 116885.99 -95953.411 116997.932 -95683.158 117055 -95396.26 117055 -95103.74 116997.932 -94816.842 116885.99 -94546.589 116723.475 -94303.368 116516.632 -94096.525 116342.24 -93980 116516.632 -93863.475 116723.475 -93656.632 116885.99 -93413.411 116997.932 -93143.158 117055 -92856.26 117055 -92563.74 116997.932 -92276.842 116885.99 -92006.589 116723.475 -91763.368 116591.62 -91631.513 116664.18 -91609.502 116774.494 -91550.537 116871.185 -91471.185 116950.537 -91374.494 117009.502 -91264.18 117045.812 -91144.482 117058.072 -91020 117055 -90455.75 116896.25 -90297 115697 -90297 115697 -90317 115443 -90317 115443 -90297 114243.75 -90297 114085 -90455.75 114081.928 -91020 99278.072 -91020 99275 -90455.75 99116.25 -90297 97917 -90297 97917 -90317 97663 -90317 97663 -90297 96463.75 -90297 96305 -90455.75 96301.928 -91020 47015 -91020 47015 -88094.117 49700 -88094.117 49700 -88435.883 49766.675 -88771.081 49897.463 -89086.831 50087.337 -89370.998 50329.002 -89612.663 50613.169 -89802.537 50928.919 -89933.325 51264.117 -90000 51605.883 -90000 51941.081 -89933.325 52256.831 -89802.537 52540.998 -89612.663 52782.663 -89370.998 52972.537 -89086.831 53103.325 -88771.081 53170 -88435.883 53170 -88094.117 53103.325 -87758.919 52972.537 -87443.169 52782.663 -87159.002 52540.998 -86917.337 52256.831 -86727.463 51941.081 -86596.675 51605.883 -86530 51264.117 -86530 50928.919 -86596.675 50613.169 -86727.463 50329.002 -86917.337 50087.337 -87159.002 49897.463 -87443.169 49766.675 -87758.919 49700 -88094.117 47015 -88094.117 47015 -78320 96301.928 -78320 96314.188 -78444.482 96350.498 -78564.18 96409.463 -78674.494 96488.815 -78771.185 96585.506 -78850.537 96695.82 -78909.502 96768.38 -78931.513 96636.525 -79063.368 96474.01 -79306.589 96362.068 -79576.842 96305 -79863.74 96305 -80156.26 96362.068 -80443.158 96474.01 -80713.411 96636.525 -80956.632 96843.368 -81163.475 97017.76 -81280 96843.368 -81396.525 96636.525 -81603.368 96474.01 -81846.589 96362.068 -82116.842 96305 -82403.74 96305 -82696.26 96362.068 -82983.158 96474.01 -83253.411 96636.525 -83496.632 96843.368 -83703.475 97017.76 -83820 96843.368 -83936.525 96636.525 -84143.368 96474.01 -84386.589 96362.068 -84656.842 96305 -84943.74 96305 -85236.26 96362.068 -85523.158 96474.01 -85793.411 96636.525 -86036.632 96843.368 -86243.475 97017.76 -86360 96843.368 -86476.525 96636.525 -86683.368 96474.01 -86926.589 96362.068 -87196.842 96305 -87483.74 96305 -87776.26 96362.068 -88063.158 96474.01 -88333.411 96636.525 -88576.632 96768.38 -88708.487 96695.82 -88730.498 96585.506 -88789.463 96488.815 -88868.815 96409.463 -88965.506 96350.498 -89075.82 96314.188 -89195.518 96301.928 -89320 96305 -89884.25 96463.75 -90043 97663 -90043 97663 -90023 97917 -90023 97917 -90043 99116.25 -90043 99275 -89884.25 99278.072 -89320 99265.812 -89195.518 99229.502 -89075.82 99170.537 -88965.506 99091.185 -88868.815 98994.494 -88789.463 98884.18 -88730.498 98811.62 -88708.487 98943.475 -88576.632 99105.99 -88333.411 99217.932 -88063.158 99275 -87776.26 99275 -87483.74 99217.932 -87196.842 99105.99 -86926.589 98943.475 -86683.368 98736.632 -86476.525 98562.24 -86360 98736.632 -86243.475 98943.475 -86036.632 99105.99 -85793.411 99217.932 -85523.158 99275 -85236.26 99275 -84943.74 99217.932 -84656.842 99105.99 -84386.589 98943.475 -84143.368 98736.632 -83936.525 98562.24 -83820 98736.632 -83703.475 98943.475 -83496.632 99105.99 -83253.411 99217.932 -82983.158 99275 -82696.26 99275 -82403.74 99217.932 -82116.842 99105.99 -81846.589 98943.475 -81603.368 98736.632 -81396.525 98562.24 -81280 98736.632 -81163.475 98943.475 -80956.632 99105.99 -80713.411 99217.932 -80443.158 99275 -80156.26 99275 -79863.74 99217.932 -79576.842 99105.99 -79306.589 98943.475 -79063.368 98811.62 -78931.513 98884.18 -78909.502 98994.494 -78850.537 99091.185 -78771.185 99170.537 -78674.494 99229.502 -78564.18 99265.812 -78444.482 99278.072 -78320 114081.928 -78320 114094.188 -78444.482 114130.498 -78564.18 114189.463 -78674.494 114268.815 -78771.185 114365.506 -78850.537 114475.82 -78909.502 114548.38 -78931.513 114416.525 -79063.368 114254.01 -79306.589 114142.068 -79576.842 114085 -79863.74 114085 -80156.26 114142.068 -80443.158 114254.01 -80713.411 114416.525 -80956.632 114623.368 -81163.475 114797.76 -81280 114623.368 -81396.525 114416.525 -81603.368 114254.01 -81846.589 114142.068 -82116.842 114085 -82403.74 114085 -82696.26 114142.068 -82983.158 114254.01 -83253.411 114416.525 -83496.632 114623.368 -83703.475 114797.76 -83820 114623.368 -83936.525 114416.525 -84143.368 114254.01 -84386.589 114142.068 -84656.842 114085 -84943.74 114085 -85236.26 114142.068 -85523.158 114254.01 -85793.411 114416.525 -86036.632 114623.368 -86243.475 114797.76 -86360 114623.368 -86476.525 114416.525 -86683.368 114254.01 -86926.589 114142.068 -87196.842 114085 -87483.74 114085 -87776.26 114142.068 -88063.158 114254.01 -88333.411 114416.525 -88576.632 114548.38 -88708.487 114475.82 -88730.498 114365.506 -88789.463 114268.815 -88868.815 114189.463 -88965.506 114130.498 -89075.82 114094.188 -89195.518 114081.928 -89320 114085 -89884.25 114243.75 -90043 115443 -90043 115443 -90023 115697 -90023 115697 -90043 116896.25 -90043 117055 -89884.25 117058.072 -89320 117045.812 -89195.518 117009.502 -89075.82 116950.537 -88965.506 116871.185 -88868.815 116774.494 -88789.463 116664.18 -88730.498 116591.62 -88708.487 116723.475 -88576.632 116885.99 -88333.411 116985.108 -88094.117 278300 -88094.117 278300 -88435.883 278366.675 -88771.081 278497.463 -89086.831 278687.337 -89370.998 278929.002 -89612.663 279213.169 -89802.537 279528.919 -89933.325 279864.117 -90000 280205.883 -90000 280541.081 -89933.325 280856.831 -89802.537 281140.998 -89612.663 281382.663 -89370.998 281572.537 -89086.831 281703.325 -88771.081 281770 -88435.883 281770 -88094.117 281703.325 -87758.919 281572.537 -87443.169 281382.663 -87159.002 281140.998 -86917.337 280856.831 -86727.463 280541.081 -86596.675 280205.883 -86530 279864.117 -86530 279528.919 -86596.675 279213.169 -86727.463 278929.002 -86917.337 278687.337 -87159.002 278497.463 -87443.169 278366.675 -87758.919 278300 -88094.117 116985.108 -88094.117 116997.932 -88063.158 117055 -87776.26 117055 -87483.74 116997.932 -87196.842 116885.99 -86926.589 116723.475 -86683.368 116516.632 -86476.525 116342.24 -86360 116516.632 -86243.475 116723.475 -86036.632 116885.99 -85793.411 116997.932 -85523.158 117055 -85236.26 117055 -84943.74 116997.932 -84656.842 116885.99 -84386.589 116723.475 -84143.368 116516.632 -83936.525 116342.24 -83820 116516.632 -83703.475 116723.475 -83496.632 116885.99 -83253.411 116997.932 -82983.158 117055 -82696.26 117055 -82403.74 116997.932 -82116.842 116885.99 -81846.589 116723.475 -81603.368 116516.632 -81396.525 116342.24 -81280 116516.632 -81163.475 116723.475 -80956.632 116885.99 -80713.411 116997.932 -80443.158 117055 -80156.26 117055 -79863.74 116997.932 -79576.842 116885.99 -79306.589 116723.475 -79063.368 116591.62 -78931.513 116664.18 -78909.502 116774.494 -78850.537 116871.185 -78771.185 116950.537 -78674.494 117009.502 -78564.18 117045.812 -78444.482 117058.072 -78320 117055 -77755.75 116896.25 -77597 115697 -77597 115697 -77617 115443 -77617 115443 -77597 114243.75 -77597 114085 -77755.75 114081.928 -78320 99278.072 -78320 99275 -77755.75 99116.25 -77597 97917 -77597 97917 -77617 97663 -77617 97663 -77597 96463.75 -77597 96305 -77755.75 96301.928 -78320 47015 -78320 47015 -65620 96301.928 -65620 96314.188 -65744.482 96350.498 -65864.18 96409.463 -65974.494 96488.815 -66071.185 96585.506 -66150.537 96695.82 -66209.502 96768.38 -66231.513 96636.525 -66363.368 96474.01 -66606.589 96362.068 -66876.842 96305 -67163.74 96305 -67456.26 96362.068 -67743.158 96474.01 -68013.411 96636.525 -68256.632 96843.368 -68463.475 97017.76 -68580 96843.368 -68696.525 96636.525 -68903.368 96474.01 -69146.589 96362.068 -69416.842 96305 -69703.74 96305 -69996.26 96362.068 -70283.158 96474.01 -70553.411 96636.525 -70796.632 96843.368 -71003.475 97017.76 -71120 96843.368 -71236.525 96636.525 -71443.368 96474.01 -71686.589 96362.068 -71956.842 96305 -72243.74 96305 -72536.26 96362.068 -72823.158 96474.01 -73093.411 96636.525 -73336.632 96843.368 -73543.475 97017.76 -73660 96843.368 -73776.525 96636.525 -73983.368 96474.01 -74226.589 96362.068 -74496.842 96305 -74783.74 96305 -75076.26 96362.068 -75363.158 96474.01 -75633.411 96636.525 -75876.632 96768.38 -76008.487 96695.82 -76030.498 96585.506 -76089.463 96488.815 -76168.815 96409.463 -76265.506 96350.498 -76375.82 96314.188 -76495.518 96301.928 -76620 96305 -77184.25 96463.75 -77343 97663 -77343 97663 -77323 97917 -77323 97917 -77343 99116.25 -77343 99275 -77184.25 99278.072 -76620 99265.812 -76495.518 99229.502 -76375.82 99170.537 -76265.506 99091.185 -76168.815 98994.494 -76089.463 98884.18 -76030.498 98811.62 -76008.487 98943.475 -75876.632 99105.99 -75633.411 99217.932 -75363.158 99275 -75076.26 99275 -74783.74 99217.932 -74496.842 99105.99 -74226.589 98943.475 -73983.368 98736.632 -73776.525 98562.24 -73660 98736.632 -73543.475 98943.475 -73336.632 99105.99 -73093.411 99217.932 -72823.158 99275 -72536.26 99275 -72243.74 99217.932 -71956.842 99105.99 -71686.589 98943.475 -71443.368 98736.632 -71236.525 98562.24 -71120 98736.632 -71003.475 98943.475 -70796.632 99105.99 -70553.411 99217.932 -70283.158 99275 -69996.26 99275 -69703.74 99217.932 -69416.842 99105.99 -69146.589 98943.475 -68903.368 98736.632 -68696.525 98562.24 -68580 98736.632 -68463.475 98943.475 -68256.632 99105.99 -68013.411 99217.932 -67743.158 99275 -67456.26 99275 -67163.74 99217.932 -66876.842 99105.99 -66606.589 98943.475 -66363.368 98811.62 -66231.513 98884.18 -66209.502 98994.494 -66150.537 99091.185 -66071.185 99170.537 -65974.494 99229.502 -65864.18 99265.812 -65744.482 99278.072 -65620 114081.928 -65620 114094.188 -65744.482 114130.498 -65864.18 114189.463 -65974.494 114268.815 -66071.185 114365.506 -66150.537 114475.82 -66209.502 114548.38 -66231.513 114416.525 -66363.368 114254.01 -66606.589 114142.068 -66876.842 114085 -67163.74 114085 -67456.26 114142.068 -67743.158 114254.01 -68013.411 114416.525 -68256.632 114623.368 -68463.475 114797.76 -68580 114623.368 -68696.525 114416.525 -68903.368 114254.01 -69146.589 114142.068 -69416.842 114085 -69703.74 114085 -69996.26 114142.068 -70283.158 114254.01 -70553.411 114416.525 -70796.632 114623.368 -71003.475 114797.76 -71120 114623.368 -71236.525 114416.525 -71443.368 114254.01 -71686.589 114142.068 -71956.842 114085 -72243.74 114085 -72536.26 114142.068 -72823.158 114254.01 -73093.411 114416.525 -73336.632 114623.368 -73543.475 114797.76 -73660 114623.368 -73776.525 114416.525 -73983.368 114254.01 -74226.589 114142.068 -74496.842 114085 -74783.74 114085 -75076.26 114142.068 -75363.158 114254.01 -75633.411 114416.525 -75876.632 114548.38 -76008.487 114475.82 -76030.498 114365.506 -76089.463 114268.815 -76168.815 114189.463 -76265.506 114130.498 -76375.82 114094.188 -76495.518 114081.928 -76620 114085 -77184.25 114243.75 -77343 115443 -77343 115443 -77323 115697 -77323 115697 -77343 116896.25 -77343 117055 -77184.25 117058.072 -76620 117045.812 -76495.518 117009.502 -76375.82 116950.537 -76265.506 116871.185 -76168.815 116774.494 -76089.463 116664.18 -76030.498 116591.62 -76008.487 116723.475 -75876.632 116885.99 -75633.411 116997.932 -75363.158 117055 -75076.26 117055 -74783.74 116997.932 -74496.842 116885.99 -74226.589 116723.475 -73983.368 116516.632 -73776.525 116342.24 -73660 116516.632 -73543.475 116723.475 -73336.632 116885.99 -73093.411 116997.932 -72823.158 117055 -72536.26 117055 -72243.74 116997.932 -71956.842 116885.99 -71686.589 116723.475 -71443.368 116516.632 -71236.525 116342.24 -71120 116516.632 -71003.475 116723.475 -70796.632 116885.99 -70553.411 116997.932 -70283.158 117055 -69996.26 117055 -69703.74 116997.932 -69416.842 116885.99 -69146.589 116723.475 -68903.368 116516.632 -68696.525 116342.24 -68580 116516.632 -68463.475 116723.475 -68256.632 116885.99 -68013.411 116997.932 -67743.158 117055 -67456.26 117055 -67163.74 116997.932 -66876.842 116885.99 -66606.589 116723.475 -66363.368 116591.62 -66231.513 116664.18 -66209.502 116774.494 -66150.537 116871.185 -66071.185 116950.537 -65974.494 117009.502 -65864.18 117045.812 -65744.482 117058.072 -65620 117055 -65055.75 116896.25 -64897 115697 -64897 115697 -64917 115443 -64917 115443 -64897 114243.75 -64897 114085 -65055.75 114081.928 -65620 99278.072 -65620 99275 -65055.75 99116.25 -64897 97917 -64897 97917 -64917 97663 -64917 97663 -64897 96463.75 -64897 96305 -65055.75 96301.928 -65620 47015 -65620 47015 -52920 96301.928 -52920 96314.188 -53044.482 96350.498 -53164.18 96409.463 -53274.494 96488.815 -53371.185 96585.506 -53450.537 96695.82 -53509.502 96768.38 -53531.513 96636.525 -53663.368 96474.01 -53906.589 96362.068 -54176.842 96305 -54463.74 96305 -54756.26 96362.068 -55043.158 96474.01 -55313.411 96636.525 -55556.632 96843.368 -55763.475 97017.76 -55880 96843.368 -55996.525 96636.525 -56203.368 96474.01 -56446.589 96362.068 -56716.842 96305 -57003.74 96305 -57296.26 96362.068 -57583.158 96474.01 -57853.411 96636.525 -58096.632 96843.368 -58303.475 97017.76 -58420 96843.368 -58536.525 96636.525 -58743.368 96474.01 -58986.589 96362.068 -59256.842 96305 -59543.74 96305 -59836.26 96362.068 -60123.158 96474.01 -60393.411 96636.525 -60636.632 96843.368 -60843.475 97017.76 -60960 96843.368 -61076.525 96636.525 -61283.368 96474.01 -61526.589 96362.068 -61796.842 96305 -62083.74 96305 -62376.26 96362.068 -62663.158 96474.01 -62933.411 96636.525 -63176.632 96768.38 -63308.487 96695.82 -63330.498 96585.506 -63389.463 96488.815 -63468.815 96409.463 -63565.506 96350.498 -63675.82 96314.188 -63795.518 96301.928 -63920 96305 -64484.25 96463.75 -64643 97663 -64643 97663 -64623 97917 -64623 97917 -64643 99116.25 -64643 99275 -64484.25 99278.072 -63920 99265.812 -63795.518 99229.502 -63675.82 99170.537 -63565.506 99091.185 -63468.815 98994.494 -63389.463 98884.18 -63330.498 98811.62 -63308.487 98943.475 -63176.632 99105.99 -62933.411 99217.932 -62663.158 99275 -62376.26 99275 -62083.74 99217.932 -61796.842 99105.99 -61526.589 98943.475 -61283.368 98736.632 -61076.525 98562.24 -60960 98736.632 -60843.475 98943.475 -60636.632 99105.99 -60393.411 99217.932 -60123.158 99275 -59836.26 99275 -59543.74 99217.932 -59256.842 99105.99 -58986.589 98943.475 -58743.368 98736.632 -58536.525 98562.24 -58420 98736.632 -58303.475 98943.475 -58096.632 99105.99 -57853.411 99217.932 -57583.158 99275 -57296.26 99275 -57003.74 99217.932 -56716.842 99105.99 -56446.589 98943.475 -56203.368 98736.632 -55996.525 98562.24 -55880 98736.632 -55763.475 98943.475 -55556.632 99105.99 -55313.411 99217.932 -55043.158 99275 -54756.26 99275 -54463.74 99217.932 -54176.842 99105.99 -53906.589 98943.475 -53663.368 98811.62 -53531.513 98884.18 -53509.502 98994.494 -53450.537 99091.185 -53371.185 99170.537 -53274.494 99229.502 -53164.18 99265.812 -53044.482 99278.072 -52920 114081.928 -52920 114094.188 -53044.482 114130.498 -53164.18 114189.463 -53274.494 114268.815 -53371.185 114365.506 -53450.537 114475.82 -53509.502 114548.38 -53531.513 114416.525 -53663.368 114254.01 -53906.589 114142.068 -54176.842 114085 -54463.74 114085 -54756.26 114142.068 -55043.158 114254.01 -55313.411 114416.525 -55556.632 114623.368 -55763.475 114797.76 -55880 114623.368 -55996.525 114416.525 -56203.368 114254.01 -56446.589 114142.068 -56716.842 114085 -57003.74 114085 -57296.26 114142.068 -57583.158 114254.01 -57853.411 114416.525 -58096.632 114623.368 -58303.475 114797.76 -58420 114623.368 -58536.525 114416.525 -58743.368 114254.01 -58986.589 114142.068 -59256.842 114085 -59543.74 114085 -59836.26 114142.068 -60123.158 114254.01 -60393.411 114416.525 -60636.632 114623.368 -60843.475 114797.76 -60960 114623.368 -61076.525 114416.525 -61283.368 114254.01 -61526.589 114142.068 -61796.842 114085 -62083.74 114085 -62376.26 114142.068 -62663.158 114254.01 -62933.411 114416.525 -63176.632 114548.38 -63308.487 114475.82 -63330.498 114365.506 -63389.463 114268.815 -63468.815 114189.463 -63565.506 114130.498 -63675.82 114094.188 -63795.518 114081.928 -63920 114085 -64484.25 114243.75 -64643 115443 -64643 115443 -64623 115697 -64623 115697 -64643 116896.25 -64643 117055 -64484.25 117058.072 -63920 117045.812 -63795.518 117009.502 -63675.82 116950.537 -63565.506 116871.185 -63468.815 116774.494 -63389.463 116664.18 -63330.498 116591.62 -63308.487 116723.475 -63176.632 116885.99 -62933.411 116997.932 -62663.158 117055 -62376.26 117055 -62083.74 116997.932 -61796.842 116885.99 -61526.589 116723.475 -61283.368 116516.632 -61076.525 116342.24 -60960 116516.632 -60843.475 116723.475 -60636.632 116885.99 -60393.411 116997.932 -60123.158 117055 -59836.26 117055 -59543.74 116997.932 -59256.842 116885.99 -58986.589 116723.475 -58743.368 116516.632 -58536.525 116342.24 -58420 116516.632 -58303.475 116723.475 -58096.632 116885.99 -57853.411 116997.932 -57583.158 117055 -57296.26 117055 -57003.74 116997.932 -56716.842 116885.99 -56446.589 116723.475 -56203.368 116516.632 -55996.525 116342.24 -55880 116516.632 -55763.475 116723.475 -55556.632 116885.99 -55313.411 116997.932 -55043.158 117055 -54756.26 117055 -54463.74 116997.932 -54176.842 116885.99 -53906.589 116723.475 -53663.368 116591.62 -53531.513 116664.18 -53509.502 116774.494 -53450.537 116871.185 -53371.185 116950.537 -53274.494 117009.502 -53164.18 117045.812 -53044.482 117058.072 -52920 117055 -52355.75 116896.25 -52197 115697 -52197 115697 -52217 115443 -52217 115443 -52197 114243.75 -52197 114085 -52355.75 114081.928 -52920 99278.072 -52920 99275 -52355.75 99116.25 -52197 97917 -52197 97917 -52217 97663 -52217 97663 -52197 96463.75 -52197 96305 -52355.75 96301.928 -52920 47015 -52920 47015 -50194.392 47032.874 -49994.117 49700 -49994.117 49700 -50335.883 49766.675 -50671.081 49897.463 -50986.831 50087.337 -51270.998 50329.002 -51512.663 50613.169 -51702.537 50928.919 -51833.325 51264.117 -51900 51605.883 -51900 51941.081 -51833.325 52256.831 -51702.537 52540.998 -51512.663 52782.663 -51270.998 52972.537 -50986.831 53103.325 -50671.081 53170 -50335.883 53170 -49994.117 87800 -49994.117 87800 -50335.883 87866.675 -50671.081 87997.463 -50986.831 88187.337 -51270.998 88429.002 -51512.663 88713.169 -51702.537 89028.919 -51833.325 89364.117 -51900 89705.883 -51900 90041.081 -51833.325 90356.831 -51702.537 90640.998 -51512.663 90882.663 -51270.998 91072.537 -50986.831 91203.325 -50671.081 91270 -50335.883 91270 -49994.117 91203.325 -49658.919 91072.537 -49343.169 90882.663 -49059.002 90640.998 -48817.337 90356.831 -48627.463 90041.081 -48496.675 89705.883 -48430 89364.117 -48430 89028.919 -48496.675 88713.169 -48627.463 88429.002 -48817.337 88187.337 -49059.002 87997.463 -49343.169 87866.675 -49658.919 87800 -49994.117 53170 -49994.117 53103.325 -49658.919 52972.537 -49343.169 52782.663 -49059.002 52540.998 -48817.337 52256.831 -48627.463 51941.081 -48496.675 51605.883 -48430 51264.117 -48430 50928.919 -48496.675 50613.169 -48627.463 50329.002 -48817.337 50087.337 -49059.002 49897.463 -49343.169 49766.675 -49658.919 49700 -49994.117 47032.874 -49994.117 47087.437 -49382.751 47294.672 -48625.226 47632.777 -47916.375 48091.067 -47278.596 48655.055 -46732.054 49306.913 -46294.023 50026.038 -45978.349 50794.768 -45793.794 51459.207 -45745 96980.345 -45745 96843.368 -45836.525" fill="none" stroke-width="254"/><path d="M 96843.368 -45836.525 96636.525 -46043.368 96474.01 -46286.589 96362.068 -46556.842 96305 -46843.74 96305 -47136.26 96362.068 -47423.158 96474.01 -47693.411 96636.525 -47936.632 96843.368 -48143.475 97017.76 -48260 96843.368 -48376.525 96636.525 -48583.368 96474.01 -48826.589 96362.068 -49096.842 96305 -49383.74 96305 -49676.26 96362.068 -49963.158 96474.01 -50233.411 96636.525 -50476.632 96768.38 -50608.487 96695.82 -50630.498 96585.506 -50689.463 96488.815 -50768.815 96409.463 -50865.506 96350.498 -50975.82 96314.188 -51095.518 96301.928 -51220 96305 -51784.25 96463.75 -51943 97663 -51943 97663 -51923 97917 -51923 97917 -51943 99116.25 -51943 99275 -51784.25 99278.072 -51220 99265.812 -51095.518 99229.502 -50975.82 99170.537 -50865.506 99091.185 -50768.815 98994.494 -50689.463 98884.18 -50630.498 98811.62 -50608.487 98943.475 -50476.632 99105.99 -50233.411 99197.042 -50013.589 102870 -50013.589 102870 -50286.411 102923.225 -50553.989 103027.629 -50806.043 103179.201 -51032.886 103372.114 -51225.799 103598.957 -51377.371 103851.011 -51481.775 104118.589 -51535 104391.411 -51535 104658.989 -51481.775 104911.043 -51377.371 105137.886 -51225.799 105330.799 -51032.886 105482.371 -50806.043 105586.775 -50553.989 105640 -50286.411 105640 -50013.589 107720 -50013.589 107720 -50286.411 107773.225 -50553.989 107877.629 -50806.043 108029.201 -51032.886 108222.114 -51225.799 108448.957 -51377.371 108701.011 -51481.775 108968.589 -51535 109241.411 -51535 109508.989 -51481.775 109761.043 -51377.371 109987.886 -51225.799 110180.799 -51032.886 110332.371 -50806.043 110436.775 -50553.989 110490 -50286.411 110490 -50013.589 110436.775 -49746.011 110332.371 -49493.957 110180.799 -49267.114 109987.886 -49074.201 109761.043 -48922.629 109508.989 -48818.225 109241.411 -48765 108968.589 -48765 108701.011 -48818.225 108448.957 -48922.629 108222.114 -49074.201 108029.201 -49267.114 107877.629 -49493.957 107773.225 -49746.011 107720 -50013.589 105640 -50013.589 105586.775 -49746.011 105482.371 -49493.957 105330.799 -49267.114 105137.886 -49074.201 104911.043 -48922.629 104658.989 -48818.225 104391.411 -48765 104118.589 -48765 103851.011 -48818.225 103598.957 -48922.629 103372.114 -49074.201 103179.201 -49267.114 103027.629 -49493.957 102923.225 -49746.011 102870 -50013.589 99197.042 -50013.589 99217.932 -49963.158 99275 -49676.26 99275 -49383.74 99217.932 -49096.842 99105.99 -48826.589 98943.475 -48583.368 98736.632 -48376.525 98562.24 -48260 98736.632 -48143.475 98943.475 -47936.632 99105.99 -47693.411 99217.932 -47423.158 99275 -47136.26 99275 -46843.74 99217.932 -46556.842 99105.99 -46286.589 98943.475 -46043.368 98736.632 -45836.525 98599.655 -45745 103263.396 -45745 103227.905 -45759.701 102976.495 -45927.688 102762.688 -46141.495 102594.701 -46392.905 102478.989 -46672.257 102420 -46968.816 102420 -47271.184 102478.989 -47567.743 102594.701 -47847.095 102762.688 -48098.505 102976.495 -48312.312 103227.905 -48480.299 103507.257 -48596.011 103803.816 -48655 104106.184 -48655 104402.743 -48596.011 104682.095 -48480.299 104933.505 -48312.312 105147.312 -48098.505 105315.299 -47847.095 105431.011 -47567.743 105490 -47271.184 105490 -46968.816 105431.011 -46672.257 105315.299 -46392.905 105147.312 -46141.495 104933.505 -45927.688 104682.095 -45759.701 104646.604 -45745 108713.396 -45745 108677.905 -45759.701 108426.495 -45927.688 108212.688 -46141.495 108044.701 -46392.905 107928.989 -46672.257 107870 -46968.816 107870 -47271.184 107928.989 -47567.743 108044.701 -47847.095 108212.688 -48098.505 108426.495 -48312.312 108677.905 -48480.299 108957.257 -48596.011 109253.816 -48655 109556.184 -48655 109852.743 -48596.011 110132.095 -48480.299 110383.505 -48312.312 110597.312 -48098.505 110765.299 -47847.095 110881.011 -47567.743 110940 -47271.184 110940 -46968.816 110881.011 -46672.257 110765.299 -46392.905 110597.312 -46141.495 110383.505 -45927.688 110132.095 -45759.701 110096.604 -45745 114760.345 -45745 114623.368 -45836.525 114416.525 -46043.368 114254.01 -46286.589 114142.068 -46556.842 114085 -46843.74 114085 -47136.26 114142.068 -47423.158 114254.01 -47693.411 114416.525 -47936.632 114623.368 -48143.475 114797.76 -48260 114623.368 -48376.525 114416.525 -48583.368 114254.01 -48826.589 114142.068 -49096.842 114085 -49383.74 114085 -49676.26 114142.068 -49963.158 114254.01 -50233.411 114416.525 -50476.632 114548.38 -50608.487 114475.82 -50630.498 114365.506 -50689.463 114268.815 -50768.815 114189.463 -50865.506 114130.498 -50975.82 114094.188 -51095.518 114081.928 -51220 114085 -51784.25 114243.75 -51943 115443 -51943 115443 -51923 115697 -51923 115697 -51943 116896.25 -51943 117055 -51784.25 117058.072 -51220 117045.812 -51095.518 117009.502 -50975.82 116950.537 -50865.506 116871.185 -50768.815 116774.494 -50689.463 116664.18 -50630.498 116591.62 -50608.487 116723.475 -50476.632 116885.99 -50233.411 116985.108 -49994.117 125900 -49994.117 125900 -50335.883 125966.675 -50671.081 126097.463 -50986.831 126287.337 -51270.998 126529.002 -51512.663 126813.169 -51702.537 127128.919 -51833.325 127464.117 -51900 127805.883 -51900 128141.081 -51833.325 128456.831 -51702.537 128740.998 -51512.663 128982.663 -51270.998 129172.537 -50986.831 129303.325 -50671.081 129370 -50335.883 129370 -49994.117 164000 -49994.117 164000 -50335.883 164066.675 -50671.081 164197.463 -50986.831 164387.337 -51270.998 164629.002 -51512.663 164913.169 -51702.537 165228.919 -51833.325 165564.117 -51900 165905.883 -51900 166241.081 -51833.325 166556.831 -51702.537 166840.998 -51512.663 167082.663 -51270.998 167272.537 -50986.831 167403.325 -50671.081 167470 -50335.883 167470 -49994.117 202100 -49994.117 202100 -50335.883 202166.675 -50671.081 202297.463 -50986.831 202487.337 -51270.998 202729.002 -51512.663 203013.169 -51702.537 203328.919 -51833.325 203664.117 -51900 204005.883 -51900 204341.081 -51833.325 204656.831 -51702.537 204940.998 -51512.663 205182.663 -51270.998 205372.537 -50986.831 205503.325 -50671.081 205570 -50335.883 205570 -49994.117 240200 -49994.117 240200 -50335.883 240266.675 -50671.081 240397.463 -50986.831 240587.337 -51270.998 240829.002 -51512.663 241113.169 -51702.537 241428.919 -51833.325 241764.117 -51900 242105.883 -51900 242441.081 -51833.325 242756.831 -51702.537 243040.998 -51512.663 243282.663 -51270.998 243472.537 -50986.831 243603.325 -50671.081 243670 -50335.883 243670 -49994.117 278300 -49994.117 278300 -50335.883 278366.675 -50671.081 278497.463 -50986.831 278687.337 -51270.998 278929.002 -51512.663 279213.169 -51702.537 279528.919 -51833.325 279864.117 -51900 280205.883 -51900 280541.081 -51833.325 280856.831 -51702.537 281140.998 -51512.663 281382.663 -51270.998 281572.537 -50986.831 281703.325 -50671.081 281770 -50335.883 281770 -49994.117 281703.325 -49658.919 281572.537 -49343.169 281382.663 -49059.002 281140.998 -48817.337 280856.831 -48627.463 280541.081 -48496.675 280205.883 -48430 279864.117 -48430 279528.919 -48496.675 279213.169 -48627.463 278929.002 -48817.337 278687.337 -49059.002 278497.463 -49343.169 278366.675 -49658.919 278300 -49994.117 243670 -49994.117 243603.325 -49658.919 243472.537 -49343.169 243282.663 -49059.002 243040.998 -48817.337 242756.831 -48627.463 242441.081 -48496.675 242105.883 -48430 241764.117 -48430 241428.919 -48496.675 241113.169 -48627.463 240829.002 -48817.337 240587.337 -49059.002 240397.463 -49343.169 240266.675 -49658.919 240200 -49994.117 205570 -49994.117 205503.325 -49658.919 205372.537 -49343.169 205182.663 -49059.002 204940.998 -48817.337 204656.831 -48627.463 204341.081 -48496.675 204005.883 -48430 203664.117 -48430 203328.919 -48496.675 203013.169 -48627.463 202729.002 -48817.337 202487.337 -49059.002 202297.463 -49343.169 202166.675 -49658.919 202100 -49994.117 167470 -49994.117 167403.325 -49658.919 167272.537 -49343.169 167082.663 -49059.002 166840.998 -48817.337 166556.831 -48627.463 166241.081 -48496.675 165905.883 -48430 165564.117 -48430 165228.919 -48496.675 164913.169 -48627.463 164629.002 -48817.337 164387.337 -49059.002 164197.463 -49343.169 164066.675 -49658.919 164000 -49994.117 129370 -49994.117 129303.325 -49658.919 129172.537 -49343.169 128982.663 -49059.002 128740.998 -48817.337 128456.831 -48627.463 128141.081 -48496.675 127805.883 -48430 127464.117 -48430 127128.919 -48496.675 126813.169 -48627.463 126529.002 -48817.337 126287.337 -49059.002 126097.463 -49343.169 125966.675 -49658.919 125900 -49994.117 116985.108 -49994.117 116997.932 -49963.158 117055 -49676.26 117055 -49383.74 116997.932 -49096.842 116885.99 -48826.589 116723.475 -48583.368 116516.632 -48376.525 116342.24 -48260 116516.632 -48143.475 116723.475 -47936.632 116885.99 -47693.411 116997.932 -47423.158 117055 -47136.26 117055 -46843.74 116997.932 -46556.842 116885.99 -46286.589 116723.475 -46043.368 116516.632 -45836.525 116379.655 -45745 280005.608 -45745 280817.249 -45817.437 281574.774 -46024.672 282283.625 -46362.777 282921.404 -46821.067 283467.946 -47385.055 283905.977 -48036.913 284221.651 -48756.038 284406.206 -49524.768 284455.001 -50189.221 284455 -126335.608 284382.563 -127147.249 284175.328 -127904.774 283837.221 -128613.627 283378.928 -129251.41 282814.945 -129797.946 282163.085 -130235.978 281443.963 -130551.651 280675.232 -130736.206 280010.792 -130785 51464.392 -130785 50652.751 -130712.563 49895.226 -130505.328 49186.373 -130167.221 48548.59 -129708.928 48002.054 -129144.945 47564.022 -128493.085 47248.349 -127773.963 47063.794 -127005.232 47015 -126340.792 47015 -126194.117 49700 -126194.117 49700 -126535.883 49766.675 -126871.081 49897.463 -127186.831 50087.337 -127470.998 50329.002 -127712.663 50613.169 -127902.537 50928.919 -128033.325 51264.117 -128100 51605.883 -128100 51941.081 -128033.325 52256.831 -127902.537 52540.998 -127712.663 52782.663 -127470.998 52972.537 -127186.831 53103.325 -126871.081 53170 -126535.883 53170 -126194.117 87800 -126194.117 87800 -126535.883 87866.675 -126871.081 87997.463 -127186.831 88187.337 -127470.998 88429.002 -127712.663 88713.169 -127902.537 89028.919 -128033.325 89364.117 -128100 89705.883 -128100 90041.081 -128033.325 90356.831 -127902.537 90640.998 -127712.663 90882.663 -127470.998 91072.537 -127186.831 91203.325 -126871.081 91270 -126535.883 91270 -126194.117 125900 -126194.117 125900 -126535.883 125966.675 -126871.081 126097.463 -127186.831 126287.337 -127470.998 126529.002 -127712.663 126813.169 -127902.537 127128.919 -128033.325 127464.117 -128100 127805.883 -128100 128141.081 -128033.325 128456.831 -127902.537 128740.998 -127712.663 128982.663 -127470.998 129172.537 -127186.831 129303.325 -126871.081 129370 -126535.883 129370 -126194.117 164000 -126194.117 164000 -126535.883 164066.675 -126871.081 164197.463 -127186.831 164387.337 -127470.998 164629.002 -127712.663 164913.169 -127902.537 165228.919 -128033.325 165564.117 -128100 165905.883 -128100 166241.081 -128033.325 166556.831 -127902.537 166840.998 -127712.663 167082.663 -127470.998 167272.537 -127186.831 167403.325 -126871.081 167470 -126535.883 167470 -126194.117 202100 -126194.117 202100 -126535.883 202166.675 -126871.081 202297.463 -127186.831 202487.337 -127470.998 202729.002 -127712.663 203013.169 -127902.537 203328.919 -128033.325 203664.117 -128100 204005.883 -128100 204341.081 -128033.325 204656.831 -127902.537 204940.998 -127712.663 205182.663 -127470.998 205372.537 -127186.831 205503.325 -126871.081 205570 -126535.883 205570 -126194.117 240200 -126194.117 240200 -126535.883 240266.675 -126871.081 240397.463 -127186.831 240587.337 -127470.998 240829.002 -127712.663 241113.169 -127902.537 241428.919 -128033.325 241764.117 -128100 242105.883 -128100 242441.081 -128033.325 242756.831 -127902.537 243040.998 -127712.663 243282.663 -127470.998 243472.537 -127186.831 243603.325 -126871.081 243670 -126535.883 243670 -126194.117 278300 -126194.117 278300 -126535.883 278366.675 -126871.081 278497.463 -127186.831 278687.337 -127470.998 278929.002 -127712.663 279213.169 -127902.537 279528.919 -128033.325 279864.117 -128100 280205.883 -128100 280541.081 -128033.325 280856.831 -127902.537 281140.998 -127712.663 281382.663 -127470.998 281572.537 -127186.831 281703.325 -126871.081 281770 -126535.883 281770 -126194.117 281703.325 -125858.919 281572.537 -125543.169 281382.663 -125259.002 281140.998 -125017.337 280856.831 -124827.463 280541.081 -124696.675 280205.883 -124630 279864.117 -124630 279528.919 -124696.675 279213.169 -124827.463 278929.002 -125017.337 278687.337 -125259.002 278497.463 -125543.169 278366.675 -125858.919 278300 -126194.117 243670 -126194.117 243603.325 -125858.919 243472.537 -125543.169 243282.663 -125259.002 243040.998 -125017.337 242756.831 -124827.463 242441.081 -124696.675 242105.883 -124630 241764.117 -124630 241428.919 -124696.675 241113.169 -124827.463 240829.002 -125017.337 240587.337 -125259.002 240397.463 -125543.169 240266.675 -125858.919 240200 -126194.117 205570 -126194.117 205503.325 -125858.919 205372.537 -125543.169 205182.663 -125259.002 204940.998 -125017.337 204656.831 -124827.463 204341.081 -124696.675 204005.883 -124630 203664.117 -124630 203328.919 -124696.675 203013.169 -124827.463 202729.002 -125017.337 202487.337 -125259.002 202297.463 -125543.169 202166.675 -125858.919 202100 -126194.117 167470 -126194.117 167403.325 -125858.919 167272.537 -125543.169 167082.663 -125259.002 166840.998 -125017.337 166556.831 -124827.463 166241.081 -124696.675 165905.883 -124630 165564.117 -124630 165228.919 -124696.675 164913.169 -124827.463 164629.002 -125017.337 164387.337 -125259.002 164197.463 -125543.169 164066.675 -125858.919 164000 -126194.117 129370 -126194.117 129303.325 -125858.919 129172.537 -125543.169 128982.663 -125259.002 128740.998 -125017.337 128456.831 -124827.463 128141.081 -124696.675 127805.883 -124630 127464.117 -124630 127128.919 -124696.675 126813.169 -124827.463 126529.002 -125017.337 126287.337 -125259.002 126097.463 -125543.169 125966.675 -125858.919 125900 -126194.117 91270 -126194.117 91203.325 -125858.919 91072.537 -125543.169 90882.663 -125259.002 90640.998 -125017.337 90356.831 -124827.463 90041.081 -124696.675 89705.883 -124630 89364.117 -124630 89028.919 -124696.675 88713.169 -124827.463 88429.002 -125017.337 88187.337 -125259.002 87997.463 -125543.169 87866.675 -125858.919 87800 -126194.117 53170 -126194.117 53103.325 -125858.919 52972.537 -125543.169 52782.663 -125259.002 52540.998 -125017.337 52256.831 -124827.463 51941.081 -124696.675 51605.883 -124630 51264.117 -124630 50928.919 -124696.675 50613.169 -124827.463 50329.002 -125017.337 50087.337 -125259.002 49897.463 -125543.169 49766.675 -125858.919 49700 -126194.117 47015 -126194.117 47015 -91020 96301.928 -91020 96314.188 -91144.482 96350.498 -91264.18 96409.463 -91374.494 96488.815 -91471.185 96585.506 -91550.537 96695.82 -91609.502 96768.38 -91631.513 96636.525 -91763.368 96474.01 -92006.589 96362.068 -92276.842 96305 -92563.74 96305 -92856.26 96362.068 -93143.158 96474.01 -93413.411 96636.525 -93656.632 96843.368 -93863.475 97017.76 -93980 96843.368 -94096.525 96636.525 -94303.368 96474.01 -94546.589 96362.068 -94816.842 96305 -95103.74 96305 -95396.26 96362.068 -95683.158 96474.01 -95953.411 96636.525 -96196.632 96843.368 -96403.475 97086.589 -96565.99 97356.842 -96677.932 97643.74 -96735 97936.26 -96735 98223.158 -96677.932 98493.411 -96565.99 98736.632 -96403.475 98943.475 -96196.632 99105.99 -95953.411 99217.932 -95683.158 99275 -95396.26 99275 -95103.74 99229.25 -94873.74 102655 -94873.74 102655 -95166.26 102712.068 -95453.158 102824.01 -95723.411 102986.525 -95966.632 103193.368 -96173.475 103436.589 -96335.99 103706.842 -96447.932 103993.74 -96505 104286.26 -96505 104573.158 -96447.932 104843.411 -96335.99 105086.632 -96173.475 105218.487 -96041.62 105240.498 -96114.18 105299.463 -96224.494 105378.815 -96321.185 105475.506 -96400.537 105585.82 -96459.502 105705.518 -96495.812 105830 -96508.072 107530 -96508.072 107654.482 -96495.812 107774.18 -96459.502 107884.494 -96400.537 107981.185 -96321.185 108060.537 -96224.494 108119.502 -96114.18 108141.513 -96041.62 108273.368 -96173.475 108516.589 -96335.99 108786.842 -96447.932 109073.74 -96505 109366.26 -96505 109653.158 -96447.932 109923.411 -96335.99 110166.632 -96173.475 110373.475 -95966.632 110535.99 -95723.411 110647.932 -95453.158 110705 -95166.26 110705 -94873.74 110647.932 -94586.842 110535.99 -94316.589 110373.475 -94073.368 110166.632 -93866.525 109923.411 -93704.01 109653.158 -93592.068 109366.26 -93535 109073.74 -93535 108786.842 -93592.068 108516.589 -93704.01 108273.368 -93866.525 108141.513 -93998.38 108119.502 -93925.82 108060.537 -93815.506 107981.185 -93718.815 107884.494 -93639.463 107774.18 -93580.498 107654.482 -93544.188 107530 -93531.928 105830 -93531.928 105705.518 -93544.188 105585.82 -93580.498 105475.506 -93639.463 105378.815 -93718.815 105299.463 -93815.506 105240.498 -93925.82 105218.487 -93998.38 105086.632 -93866.525 104843.411 -93704.01 104573.158 -93592.068 104286.26 -93535 103993.74 -93535 103706.842 -93592.068 103436.589 -93704.01 103193.368 -93866.525 102986.525 -94073.368 102824.01 -94316.589 102712.068 -94586.842 102655 -94873.74 99229.25 -94873.74 99217.932 -94816.842 99105.99 -94546.589 98943.475 -94303.368 98736.632 -94096.525 98562.24 -93980 98736.632 -93863.475 98943.475 -93656.632 99105.99 -93413.411 99217.932 -93143.158 99275 -92856.26 99275 -92563.74 99217.932 -92276.842 99105.99 -92006.589 98943.475 -91763.368 98811.62 -91631.513 98884.18 -91609.502 98994.494 -91550.537 99091.185 -91471.185 99170.537 -91374.494 99229.502 -91264.18 99265.812 -91144.482 99278.072 -91020 114081.928 -91020 114094.188 -91144.482 114130.498 -91264.18 114189.463 -91374.494 114268.815 -91471.185 114365.506 -91550.537 114475.82 -91609.502 114548.38 -91631.513 114416.525 -91763.368 114254.01 -92006.589 114142.068 -92276.842 114085 -92563.74 114085 -92856.26 114142.068 -93143.158 114254.01 -93413.411 114416.525 -93656.632 114623.368 -93863.475 114797.76 -93980 114623.368 -94096.525 114416.525 -94303.368 114254.01 -94546.589 114142.068 -94816.842 114085 -95103.74 114085 -95396.26 114142.068 -95683.158 114254.01 -95953.411 114416.525 -96196.632 114623.368 -96403.475 114866.589 -96565.99 115136.842 -96677.932 115423.74 -96735 115716.26 -96735 116003.158 -96677.932 116273.411 -96565.99 116516.632 -96403.475 116723.475 -96196.632 116885.99 -95953.411 116997.932 -95683.158 117055 -95396.26 117055 -95103.74 116997.932 -94816.842 116885.99 -94546.589 116723.475 -94303.368 116516.632 -94096.525 116342.24 -93980 116516.632 -93863.475 116723.475 -93656.632 116885.99 -93413.411 116997.932 -93143.158 117055 -92856.26 117055 -92563.74 116997.932 -92276.842 116885.99 -92006.589 116723.475 -91763.368 116591.62 -91631.513 116664.18 -91609.502 116774.494 -91550.537 116871.185 -91471.185 116950.537 -91374.494 117009.502 -91264.18 117045.812 -91144.482 117058.072 -91020 117055 -90455.75 116896.25 -90297 115697 -90297 115697 -90317 115443 -90317 115443 -90297 114243.75 -90297 114085 -90455.75 114081.928 -91020 99278.072 -91020 99275 -90455.75 99116.25 -90297 97917 -90297 97917 -90317 97663 -90317 97663 -90297 96463.75 -90297 96305 -90455.75 96301.928 -91020 47015 -91020 47015 -88094.117 49700 -88094.117 49700 -88435.883 49766.675 -88771.081 49897.463 -89086.831 50087.337 -89370.998 50329.002 -89612.663 50613.169 -89802.537 50928.919 -89933.325 51264.117 -90000 51605.883 -90000 51941.081 -89933.325 52256.831 -89802.537 52540.998 -89612.663 52782.663 -89370.998 52972.537 -89086.831 53103.325 -88771.081 53170 -88435.883 53170 -88094.117 53103.325 -87758.919 52972.537 -87443.169 52782.663 -87159.002 52540.998 -86917.337 52256.831 -86727.463 51941.081 -86596.675 51605.883 -86530 51264.117 -86530 50928.919 -86596.675 50613.169 -86727.463 50329.002 -86917.337 50087.337 -87159.002 49897.463 -87443.169 49766.675 -87758.919 49700 -88094.117 47015 -88094.117 47015 -78320 96301.928 -78320 96314.188 -78444.482 96350.498 -78564.18 96409.463 -78674.494 96488.815 -78771.185 96585.506 -78850.537 96695.82 -78909.502 96768.38 -78931.513 96636.525 -79063.368 96474.01 -79306.589 96362.068 -79576.842 96305 -79863.74 96305 -80156.26 96362.068 -80443.158 96474.01 -80713.411 96636.525 -80956.632 96843.368 -81163.475 97017.76 -81280 96843.368 -81396.525 96636.525 -81603.368 96474.01 -81846.589 96362.068 -82116.842 96305 -82403.74 96305 -82696.26 96362.068 -82983.158 96474.01 -83253.411 96636.525 -83496.632 96843.368 -83703.475 97017.76 -83820 96843.368 -83936.525 96636.525 -84143.368 96474.01 -84386.589 96362.068 -84656.842 96305 -84943.74 96305 -85236.26 96362.068 -85523.158 96474.01 -85793.411 96636.525 -86036.632 96843.368 -86243.475 97017.76 -86360 96843.368 -86476.525 96636.525 -86683.368 96474.01 -86926.589 96362.068 -87196.842 96305 -87483.74 96305 -87776.26 96362.068 -88063.158 96474.01 -88333.411 96636.525 -88576.632 96768.38 -88708.487 96695.82 -88730.498 96585.506 -88789.463 96488.815 -88868.815 96409.463 -88965.506 96350.498 -89075.82 96314.188 -89195.518 96301.928 -89320 96305 -89884.25 96463.75 -90043 97663 -90043 97663 -90023 97917 -90023 97917 -90043 99116.25 -90043 99275 -89884.25 99278.072 -89320 99265.812 -89195.518 99229.502 -89075.82 99170.537 -88965.506 99091.185 -88868.815 98994.494 -88789.463 98884.18 -88730.498 98811.62 -88708.487 98943.475 -88576.632 99105.99 -88333.411 99217.932 -88063.158 99275 -87776.26 99275 -87483.74 99217.932 -87196.842 99105.99 -86926.589 98943.475 -86683.368 98736.632 -86476.525 98562.24 -86360 98736.632 -86243.475 98943.475 -86036.632 99105.99 -85793.411 99217.932 -85523.158 99275 -85236.26 99275 -84943.74 99217.932 -84656.842 99105.99 -84386.589 98943.475 -84143.368 98736.632 -83936.525 98562.24 -83820 98736.632 -83703.475 98943.475 -83496.632 99105.99 -83253.411 99217.932 -82983.158 99275 -82696.26 99275 -82403.74 99217.932 -82116.842 99105.99 -81846.589 98943.475 -81603.368 98736.632 -81396.525 98562.24 -81280 98736.632 -81163.475 98943.475 -80956.632 99105.99 -80713.411 99217.932 -80443.158 99275 -80156.26 99275 -79863.74 99217.932 -79576.842 99105.99 -79306.589 98943.475 -79063.368 98811.62 -78931.513 98884.18 -78909.502 98994.494 -78850.537 99091.185 -78771.185 99170.537 -78674.494 99229.502 -78564.18 99265.812 -78444.482 99278.072 -78320 114081.928 -78320 114094.188 -78444.482 114130.498 -78564.18 114189.463 -78674.494 114268.815 -78771.185 114365.506 -78850.537 114475.82 -78909.502 114548.38 -78931.513 114416.525 -79063.368 114254.01 -79306.589 114142.068 -79576.842 114085 -79863.74 114085 -80156.26 114142.068 -80443.158 114254.01 -80713.411 114416.525 -80956.632 114623.368 -81163.475 114797.76 -81280 114623.368 -81396.525 114416.525 -81603.368 114254.01 -81846.589 114142.068 -82116.842 114085 -82403.74 114085 -82696.26 114142.068 -82983.158 114254.01 -83253.411 114416.525 -83496.632 114623.368 -83703.475 114797.76 -83820 114623.368 -83936.525 114416.525 -84143.368 114254.01 -84386.589 114142.068 -84656.842 114085 -84943.74 114085 -85236.26 114142.068 -85523.158 114254.01 -85793.411 114416.525 -86036.632 114623.368 -86243.475 114797.76 -86360 114623.368 -86476.525 114416.525 -86683.368 114254.01 -86926.589 114142.068 -87196.842 114085 -87483.74 114085 -87776.26 114142.068 -88063.158 114254.01 -88333.411 114416.525 -88576.632 114548.38 -88708.487 114475.82 -88730.498 114365.506 -88789.463 114268.815 -88868.815 114189.463 -88965.506 114130.498 -89075.82 114094.188 -89195.518 114081.928 -89320 114085 -89884.25 114243.75 -90043 115443 -90043 115443 -90023 115697 -90023 115697 -90043 116896.25 -90043 117055 -89884.25 117058.072 -89320 117045.812 -89195.518 117009.502 -89075.82 116950.537 -88965.506 116871.185 -88868.815 116774.494 -88789.463 116664.18 -88730.498 116591.62 -88708.487 116723.475 -88576.632 116885.99 -88333.411 116985.108 -88094.117 278300 -88094.117 278300 -88435.883 278366.675 -88771.081 278497.463 -89086.831 278687.337 -89370.998 278929.002 -89612.663 279213.169 -89802.537 279528.919 -89933.325 279864.117 -90000 280205.883 -90000 280541.081 -89933.325 280856.831 -89802.537 281140.998 -89612.663 281382.663 -89370.998 281572.537 -89086.831 281703.325 -88771.081 281770 -88435.883 281770 -88094.117 281703.325 -87758.919 281572.537 -87443.169 281382.663 -87159.002 281140.998 -86917.337 280856.831 -86727.463 280541.081 -86596.675 280205.883 -86530 279864.117 -86530 279528.919 -86596.675 279213.169 -86727.463 278929.002 -86917.337 278687.337 -87159.002 278497.463 -87443.169 278366.675 -87758.919 278300 -88094.117 116985.108 -88094.117 116997.932 -88063.158 117055 -87776.26 117055 -87483.74 116997.932 -87196.842 116885.99 -86926.589 116723.475 -86683.368 116516.632 -86476.525 116342.24 -86360 116516.632 -86243.475 116723.475 -86036.632 116885.99 -85793.411 116997.932 -85523.158 117055 -85236.26 117055 -84943.74 116997.932 -84656.842 116885.99 -84386.589 116723.475 -84143.368 116516.632 -83936.525 116342.24 -83820 116516.632 -83703.475 116723.475 -83496.632 116885.99 -83253.411 116997.932 -82983.158 117055 -82696.26 117055 -82403.74 116997.932 -82116.842 116885.99 -81846.589 116723.475 -81603.368 116516.632 -81396.525 116342.24 -81280 116516.632 -81163.475 116723.475 -80956.632 116885.99 -80713.411 116997.932 -80443.158 117055 -80156.26 117055 -79863.74 116997.932 -79576.842 116885.99 -79306.589 116723.475 -79063.368 116591.62 -78931.513 116664.18 -78909.502 116774.494 -78850.537 116871.185 -78771.185 116950.537 -78674.494 117009.502 -78564.18 117045.812 -78444.482 117058.072 -78320 117055 -77755.75 116896.25 -77597 115697 -77597 115697 -77617 115443 -77617 115443 -77597 114243.75 -77597 114085 -77755.75 114081.928 -78320 99278.072 -78320 99275 -77755.75 99116.25 -77597 97917 -77597 97917 -77617 97663 -77617 97663 -77597 96463.75 -77597 96305 -77755.75 96301.928 -78320 47015 -78320 47015 -65620 96301.928 -65620 96314.188 -65744.482 96350.498 -65864.18 96409.463 -65974.494 96488.815 -66071.185 96585.506 -66150.537 96695.82 -66209.502 96768.38 -66231.513 96636.525 -66363.368 96474.01 -66606.589 96362.068 -66876.842 96305 -67163.74 96305 -67456.26 96362.068 -67743.158 96474.01 -68013.411 96636.525 -68256.632 96843.368 -68463.475 97017.76 -68580 96843.368 -68696.525 96636.525 -68903.368 96474.01 -69146.589 96362.068 -69416.842 96305 -69703.74 96305 -69996.26 96362.068 -70283.158 96474.01 -70553.411 96636.525 -70796.632 96843.368 -71003.475 97017.76 -71120 96843.368 -71236.525 96636.525 -71443.368 96474.01 -71686.589 96362.068 -71956.842 96305 -72243.74 96305 -72536.26 96362.068 -72823.158 96474.01 -73093.411 96636.525 -73336.632 96843.368 -73543.475 97017.76 -73660 96843.368 -73776.525 96636.525 -73983.368 96474.01 -74226.589 96362.068 -74496.842 96305 -74783.74 96305 -75076.26 96362.068 -75363.158 96474.01 -75633.411 96636.525 -75876.632 96768.38 -76008.487 96695.82 -76030.498 96585.506 -76089.463 96488.815 -76168.815 96409.463 -76265.506 96350.498 -76375.82 96314.188 -76495.518 96301.928 -76620 96305 -77184.25 96463.75 -77343 97663 -77343 97663 -77323 97917 -77323 97917 -77343 99116.25 -77343 99275 -77184.25 99278.072 -76620 99265.812 -76495.518 99229.502 -76375.82 99170.537 -76265.506 99091.185 -76168.815 98994.494 -76089.463 98884.18 -76030.498 98811.62 -76008.487 98943.475 -75876.632 99105.99 -75633.411 99217.932 -75363.158 99275 -75076.26 99275 -74783.74 99217.932 -74496.842 99105.99 -74226.589 98943.475 -73983.368 98736.632 -73776.525 98562.24 -73660 98736.632 -73543.475 98943.475 -73336.632 99105.99 -73093.411 99217.932 -72823.158 99275 -72536.26 99275 -72243.74 99217.932 -71956.842 99105.99 -71686.589 98943.475 -71443.368 98736.632 -71236.525 98562.24 -71120 98736.632 -71003.475 98943.475 -70796.632 99105.99 -70553.411 99217.932 -70283.158 99275 -69996.26 99275 -69703.74 99217.932 -69416.842 99105.99 -69146.589 98943.475 -68903.368 98736.632 -68696.525 98562.24 -68580 98736.632 -68463.475 98943.475 -68256.632 99105.99 -68013.411 99217.932 -67743.158 99275 -67456.26 99275 -67163.74 99217.932 -66876.842 99105.99 -66606.589 98943.475 -66363.368 98811.62 -66231.513 98884.18 -66209.502 98994.494 -66150.537 99091.185 -66071.185 99170.537 -65974.494 99229.502 -65864.18 99265.812 -65744.482 99278.072 -65620 114081.928 -65620 114094.188 -65744.482 114130.498 -65864.18 114189.463 -65974.494 114268.815 -66071.185 114365.506 -66150.537 114475.82 -66209.502 114548.38 -66231.513 114416.525 -66363.368 114254.01 -66606.589 114142.068 -66876.842 114085 -67163.74 114085 -67456.26 114142.068 -67743.158 114254.01 -68013.411 114416.525 -68256.632 114623.368 -68463.475 114797.76 -68580 114623.368 -68696.525 114416.525 -68903.368 114254.01 -69146.589 114142.068 -69416.842 114085 -69703.74 114085 -69996.26 114142.068 -70283.158 114254.01 -70553.411 114416.525 -70796.632 114623.368 -71003.475 114797.76 -71120 114623.368 -71236.525 114416.525 -71443.368 114254.01 -71686.589 114142.068 -71956.842 114085 -72243.74 114085 -72536.26 114142.068 -72823.158 114254.01 -73093.411 114416.525 -73336.632 114623.368 -73543.475 114797.76 -73660 114623.368 -73776.525 114416.525 -73983.368 114254.01 -74226.589 114142.068 -74496.842 114085 -74783.74 114085 -75076.26 114142.068 -75363.158 114254.01 -75633.411 114416.525 -75876.632 114548.38 -76008.487 114475.82 -76030.498 114365.506 -76089.463 114268.815 -76168.815 114189.463 -76265.506 114130.498 -76375.82 114094.188 -76495.518 114081.928 -76620 114085 -77184.25 114243.75 -77343 115443 -77343 115443 -77323 115697 -77323 115697 -77343 116896.25 -77343 117055 -77184.25 117058.072 -76620 117045.812 -76495.518 117009.502 -76375.82 116950.537 -76265.506 116871.185 -76168.815 116774.494 -76089.463 116664.18 -76030.498 116591.62 -76008.487 116723.475 -75876.632 116885.99 -75633.411 116997.932 -75363.158 117055 -75076.26 117055 -74783.74 116997.932 -74496.842 116885.99 -74226.589 116723.475 -73983.368 116516.632 -73776.525 116342.24 -73660 116516.632 -73543.475 116723.475 -73336.632 116885.99 -73093.411 116997.932 -72823.158 117055 -72536.26 117055 -72243.74 116997.932 -71956.842 116885.99 -71686.589 116723.475 -71443.368 116516.632 -71236.525 116342.24 -71120 116516.632 -71003.475 116723.475 -70796.632 116885.99 -70553.411 116997.932 -70283.158 117055 -69996.26 117055 -69703.74 116997.932 -69416.842 116885.99 -69146.589 116723.475 -68903.368 116516.632 -68696.525 116342.24 -68580 116516.632 -68463.475 116723.475 -68256.632 116885.99 -68013.411 116997.932 -67743.158 117055 -67456.26 117055 -67163.74 116997.932 -66876.842 116885.99 -66606.589 116723.475 -66363.368 116591.62 -66231.513 116664.18 -66209.502 116774.494 -66150.537 116871.185 -66071.185 116950.537 -65974.494 117009.502 -65864.18 117045.812 -65744.482 117058.072 -65620 117055 -65055.75 116896.25 -64897 115697 -64897 115697 -64917 115443 -64917 115443 -64897 114243.75 -64897 114085 -65055.75 114081.928 -65620 99278.072 -65620 99275 -65055.75 99116.25 -64897 97917 -64897 97917 -64917 97663 -64917 97663 -64897 96463.75 -64897 96305 -65055.75 96301.928 -65620 47015 -65620 47015 -52920 96301.928 -52920 96314.188 -53044.482 96350.498 -53164.18 96409.463 -53274.494 96488.815 -53371.185 96585.506 -53450.537 96695.82 -53509.502 96768.38 -53531.513 96636.525 -53663.368 96474.01 -53906.589 96362.068 -54176.842 96305 -54463.74 96305 -54756.26 96362.068 -55043.158 96474.01 -55313.411 96636.525 -55556.632 96843.368 -55763.475 97017.76 -55880 96843.368 -55996.525 96636.525 -56203.368 96474.01 -56446.589 96362.068 -56716.842 96305 -57003.74 96305 -57296.26 96362.068 -57583.158 96474.01 -57853.411 96636.525 -58096.632 96843.368 -58303.475 97017.76 -58420 96843.368 -58536.525 96636.525 -58743.368 96474.01 -58986.589 96362.068 -59256.842 96305 -59543.74 96305 -59836.26 96362.068 -60123.158 96474.01 -60393.411 96636.525 -60636.632 96843.368 -60843.475 97017.76 -60960 96843.368 -61076.525 96636.525 -61283.368 96474.01 -61526.589 96362.068 -61796.842 96305 -62083.74 96305 -62376.26 96362.068 -62663.158 96474.01 -62933.411 96636.525 -63176.632 96768.38 -63308.487 96695.82 -63330.498 96585.506 -63389.463 96488.815 -63468.815 96409.463 -63565.506 96350.498 -63675.82 96314.188 -63795.518 96301.928 -63920 96305 -64484.25 96463.75 -64643 97663 -64643 97663 -64623 97917 -64623 97917 -64643 99116.25 -64643 99275 -64484.25 99278.072 -63920 99265.812 -63795.518 99229.502 -63675.82 99170.537 -63565.506 99091.185 -63468.815 98994.494 -63389.463 98884.18 -63330.498 98811.62 -63308.487 98943.475 -63176.632 99105.99 -62933.411 99217.932 -62663.158 99275 -62376.26 99275 -62083.74 99217.932 -61796.842 99105.99 -61526.589 98943.475 -61283.368 98736.632 -61076.525 98562.24 -60960 98736.632 -60843.475 98943.475 -60636.632 99105.99 -60393.411 99217.932 -60123.158 99275 -59836.26 99275 -59543.74 99217.932 -59256.842 99105.99 -58986.589 98943.475 -58743.368 98736.632 -58536.525 98562.24 -58420 98736.632 -58303.475 98943.475 -58096.632 99105.99 -57853.411 99217.932 -57583.158 99275 -57296.26 99275 -57003.74 99217.932 -56716.842 99105.99 -56446.589 98943.475 -56203.368 98736.632 -55996.525 98562.24 -55880 98736.632 -55763.475 98943.475 -55556.632 99105.99 -55313.411 99217.932 -55043.158 99275 -54756.26 99275 -54463.74 99217.932 -54176.842 99105.99 -53906.589 98943.475 -53663.368 98811.62 -53531.513 98884.18 -53509.502 98994.494 -53450.537 99091.185 -53371.185 99170.537 -53274.494 99229.502 -53164.18 99265.812 -53044.482 99278.072 -52920 114081.928 -52920 114094.188 -53044.482 114130.498 -53164.18 114189.463 -53274.494 114268.815 -53371.185 114365.506 -53450.537 114475.82 -53509.502 114548.38 -53531.513 114416.525 -53663.368 114254.01 -53906.589 114142.068 -54176.842 114085 -54463.74 114085 -54756.26 114142.068 -55043.158 114254.01 -55313.411 114416.525 -55556.632 114623.368 -55763.475 114797.76 -55880 114623.368 -55996.525 114416.525 -56203.368 114254.01 -56446.589 114142.068 -56716.842 114085 -57003.74 114085 -57296.26 114142.068 -57583.158 114254.01 -57853.411 114416.525 -58096.632 114623.368 -58303.475 114797.76 -58420 114623.368 -58536.525 114416.525 -58743.368 114254.01 -58986.589 114142.068 -59256.842 114085 -59543.74 114085 -59836.26 114142.068 -60123.158 114254.01 -60393.411 114416.525 -60636.632 114623.368 -60843.475 114797.76 -60960 114623.368 -61076.525 114416.525 -61283.368 114254.01 -61526.589 114142.068 -61796.842 114085 -62083.74 114085 -62376.26 114142.068 -62663.158 114254.01 -62933.411 114416.525 -63176.632 114548.38 -63308.487 114475.82 -63330.498 114365.506 -63389.463 114268.815 -63468.815 114189.463 -63565.506 114130.498 -63675.82 114094.188 -63795.518 114081.928 -63920 114085 -64484.25 114243.75 -64643 115443 -64643 115443 -64623 115697 -64623 115697 -64643 116896.25 -64643 117055 -64484.25 117058.072 -63920 117045.812 -63795.518 117009.502 -63675.82 116950.537 -63565.506 116871.185 -63468.815 116774.494 -63389.463 116664.18 -63330.498 116591.62 -63308.487 116723.475 -63176.632 116885.99 -62933.411 116997.932 -62663.158 117055 -62376.26 117055 -62083.74 116997.932 -61796.842 116885.99 -61526.589 116723.475 -61283.368 116516.632 -61076.525 116342.24 -60960 116516.632 -60843.475 116723.475 -60636.632 116885.99 -60393.411 116997.932 -60123.158 117055 -59836.26 117055 -59543.74 116997.932 -59256.842 116885.99 -58986.589 116723.475 -58743.368 116516.632 -58536.525 116342.24 -58420 116516.632 -58303.475 116723.475 -58096.632 116885.99 -57853.411 116997.932 -57583.158 117055 -57296.26 117055 -57003.74 116997.932 -56716.842 116885.99 -56446.589 116723.475 -56203.368 116516.632 -55996.525 116342.24 -55880 116516.632 -55763.475 116723.475 -55556.632 116885.99 -55313.411 116997.932 -55043.158 117055 -54756.26 117055 -54463.74 116997.932 -54176.842 116885.99 -53906.589 116723.475 -53663.368 116591.62 -53531.513 116664.18 -53509.502 116774.494 -53450.537 116871.185 -53371.185 116950.537 -53274.494 117009.502 -53164.18 117045.812 -53044.482 117058.072 -52920 117055 -52355.75 116896.25 -52197 115697 -52197 115697 -52217 115443 -52217 115443 -52197 114243.75 -52197 114085 -52355.75 114081.928 -52920 99278.072 -52920 99275 -52355.75 99116.25 -52197 97917 -52197 97917 -52217 97663 -52217 97663 -52197 96463.75 -52197 96305 -52355.75 96301.928 -52920 47015 -52920 47015 -50194.392 47032.874 -49994.117 49700 -49994.117 49700 -50335.883 49766.675 -50671.081 49897.463 -50986.831 50087.337 -51270.998 50329.002 -51512.663 50613.169 -51702.537 50928.919 -51833.325 51264.117 -51900 51605.883 -51900 51941.081 -51833.325 52256.831 -51702.537 52540.998 -51512.663 52782.663 -51270.998 52972.537 -50986.831 53103.325 -50671.081 53170 -50335.883 53170 -49994.117 87800 -49994.117 87800 -50335.883 87866.675 -50671.081 87997.463 -50986.831 88187.337 -51270.998 88429.002 -51512.663 88713.169 -51702.537 89028.919 -51833.325 89364.117 -51900 89705.883 -51900 90041.081 -51833.325 90356.831 -51702.537 90640.998 -51512.663 90882.663 -51270.998 91072.537 -50986.831 91203.325 -50671.081 91270 -50335.883 91270 -49994.117 91203.325 -49658.919 91072.537 -49343.169 90882.663 -49059.002 90640.998 -48817.337 90356.831 -48627.463 90041.081 -48496.675 89705.883 -48430 89364.117 -48430 89028.919 -48496.675 88713.169 -48627.463 88429.002 -48817.337 88187.337 -49059.002 87997.463 -49343.169 87866.675 -49658.919 87800 -49994.117 53170 -49994.117 53103.325 -49658.919 52972.537 -49343.169 52782.663 -49059.002 52540.998 -48817.337 52256.831 -48627.463 51941.081 -48496.675 51605.883 -48430 51264.117 -48430 50928.919 -48496.675 50613.169 -48627.463 50329.002 -48817.337 50087.337 -49059.002 49897.463 -49343.169 49766.675 -49658.919 49700 -49994.117 47032.874 -49994.117 47087.437 -49382.751 47294.672 -48625.226 47632.777 -47916.375 48091.067 -47278.596 48655.055 -46732.054 49306.913 -46294.023 50026.038 -45978.349 50794.768 -45793.794 51459.207 -45745 96980.345 -45745 96843.368 -45836.525"/></g><g id="atUKypFE3zCdUizfNEXS_bottom_soldermask"><use xlink:href="#VQgMb6YZPM9F75-rDAuK_pad-10" x="109220" y="-95020"/><use xlink:href="#VQgMb6YZPM9F75-rDAuK_pad-11" x="106680" y="-95020"/><use xlink:href="#VQgMb6YZPM9F75-rDAuK_pad-10" x="104140" y="-95020"/><use xlink:href="#VQgMb6YZPM9F75-rDAuK_pad-12" x="109105" y="-50150"/><use xlink:href="#VQgMb6YZPM9F75-rDAuK_pad-12" x="104255" y="-50150"/><use xlink:href="#VQgMb6YZPM9F75-rDAuK_pad-13" x="109405" y="-47120"/><use xlink:href="#VQgMb6YZPM9F75-rDAuK_pad-13" x="103955" y="-47120"/><use xlink:href="#VQgMb6YZPM9F75-rDAuK_pad-10" x="115570" y="-46990"/><use xlink:href="#VQgMb6YZPM9F75-rDAuK_pad-10" x="115570" y="-49530"/><use xlink:href="#VQgMb6YZPM9F75-rDAuK_pad-11" x="115570" y="-52070"/><use xlink:href="#VQgMb6YZPM9F75-rDAuK_pad-10" x="115570" y="-54610"/><use xlink:href="#VQgMb6YZPM9F75-rDAuK_pad-10" x="115570" y="-57150"/><use xlink:href="#VQgMb6YZPM9F75-rDAuK_pad-10" x="115570" y="-59690"/><use xlink:href="#VQgMb6YZPM9F75-rDAuK_pad-10" x="115570" y="-62230"/><use xlink:href="#VQgMb6YZPM9F75-rDAuK_pad-11" x="115570" y="-64770"/><use xlink:href="#VQgMb6YZPM9F75-rDAuK_pad-10" x="115570" y="-67310"/><use xlink:href="#VQgMb6YZPM9F75-rDAuK_pad-10" x="115570" y="-69850"/><use xlink:href="#VQgMb6YZPM9F75-rDAuK_pad-10" x="115570" y="-72390"/><use xlink:href="#VQgMb6YZPM9F75-rDAuK_pad-10" x="115570" y="-74930"/><use xlink:href="#VQgMb6YZPM9F75-rDAuK_pad-11" x="115570" y="-77470"/><use xlink:href="#VQgMb6YZPM9F75-rDAuK_pad-10" x="115570" y="-80010"/><use xlink:href="#VQgMb6YZPM9F75-rDAuK_pad-10" x="115570" y="-82550"/><use xlink:href="#VQgMb6YZPM9F75-rDAuK_pad-10" x="115570" y="-85090"/><use xlink:href="#VQgMb6YZPM9F75-rDAuK_pad-10" x="115570" y="-87630"/><use xlink:href="#VQgMb6YZPM9F75-rDAuK_pad-11" x="115570" y="-90170"/><use xlink:href="#VQgMb6YZPM9F75-rDAuK_pad-10" x="115570" y="-92710"/><use xlink:href="#VQgMb6YZPM9F75-rDAuK_pad-10" x="115570" y="-95250"/><use xlink:href="#VQgMb6YZPM9F75-rDAuK_pad-10" x="97790" y="-95250"/><use xlink:href="#VQgMb6YZPM9F75-rDAuK_pad-10" x="97790" y="-92710"/><use xlink:href="#VQgMb6YZPM9F75-rDAuK_pad-11" x="97790" y="-90170"/><use xlink:href="#VQgMb6YZPM9F75-rDAuK_pad-10" x="97790" y="-87630"/><use xlink:href="#VQgMb6YZPM9F75-rDAuK_pad-10" x="97790" y="-85090"/><use xlink:href="#VQgMb6YZPM9F75-rDAuK_pad-10" x="97790" y="-82550"/><use xlink:href="#VQgMb6YZPM9F75-rDAuK_pad-10" x="97790" y="-80010"/><use xlink:href="#VQgMb6YZPM9F75-rDAuK_pad-11" x="97790" y="-77470"/><use xlink:href="#VQgMb6YZPM9F75-rDAuK_pad-10" x="97790" y="-74930"/><use xlink:href="#VQgMb6YZPM9F75-rDAuK_pad-10" x="97790" y="-72390"/><use xlink:href="#VQgMb6YZPM9F75-rDAuK_pad-10" x="97790" y="-69850"/><use xlink:href="#VQgMb6YZPM9F75-rDAuK_pad-10" x="97790" y="-67310"/><use xlink:href="#VQgMb6YZPM9F75-rDAuK_pad-11" x="97790" y="-64770"/><use xlink:href="#VQgMb6YZPM9F75-rDAuK_pad-10" x="97790" y="-62230"/><use xlink:href="#VQgMb6YZPM9F75-rDAuK_pad-10" x="97790" y="-59690"/><use xlink:href="#VQgMb6YZPM9F75-rDAuK_pad-10" x="97790" y="-57150"/><use xlink:href="#VQgMb6YZPM9F75-rDAuK_pad-10" x="97790" y="-54610"/><use xlink:href="#VQgMb6YZPM9F75-rDAuK_pad-11" x="97790" y="-52070"/><use xlink:href="#VQgMb6YZPM9F75-rDAuK_pad-10" x="97790" y="-49530"/><use xlink:href="#VQgMb6YZPM9F75-rDAuK_pad-10" x="97790" y="-46990"/><use xlink:href="#VQgMb6YZPM9F75-rDAuK_pad-14" x="280035" y="-88265"/><use xlink:href="#VQgMb6YZPM9F75-rDAuK_pad-14" x="241935" y="-126365"/><use xlink:href="#VQgMb6YZPM9F75-rDAuK_pad-14" x="165735" y="-126365"/><use xlink:href="#VQgMb6YZPM9F75-rDAuK_pad-14" x="89535" y="-126365"/><use xlink:href="#VQgMb6YZPM9F75-rDAuK_pad-14" x="241935" y="-50165"/><use xlink:href="#VQgMb6YZPM9F75-rDAuK_pad-14" x="165735" y="-50165"/><use xlink:href="#VQgMb6YZPM9F75-rDAuK_pad-14" x="89535" y="-50165"/><use xlink:href="#VQgMb6YZPM9F75-rDAuK_pad-14" x="51435" y="-88265"/><use xlink:href="#VQgMb6YZPM9F75-rDAuK_pad-14" x="280035" y="-126365"/><use xlink:href="#VQgMb6YZPM9F75-rDAuK_pad-14" x="203835" y="-126365"/><use xlink:href="#VQgMb6YZPM9F75-rDAuK_pad-14" x="127635" y="-126365"/><use xlink:href="#VQgMb6YZPM9F75-rDAuK_pad-14" x="51435" y="-126365"/><use xlink:href="#VQgMb6YZPM9F75-rDAuK_pad-14" x="280035" y="-50165"/><use xlink:href="#VQgMb6YZPM9F75-rDAuK_pad-14" x="203835" y="-50165"/><use xlink:href="#VQgMb6YZPM9F75-rDAuK_pad-14" x="127635" y="-50165"/><use xlink:href="#VQgMb6YZPM9F75-rDAuK_pad-14" x="51435" y="-50165"/></g><g id="atUKypFE3zCdUizfNEXS_bottom_drill1" transform="scale(25.4,25.4)"><use xlink:href="#m9Vz9ETyzJ_MMEA85_zg_pad-1" x="2811.1" y="-3401.1"/><use xlink:href="#m9Vz9ETyzJ_MMEA85_zg_pad-1" x="3277" y="-3708"/><use xlink:href="#m9Vz9ETyzJ_MMEA85_zg_pad-1" x="10118" y="-3451"/><use xlink:href="#m9Vz9ETyzJ_MMEA85_zg_pad-2" x="3850" y="-1850"/><use xlink:href="#m9Vz9ETyzJ_MMEA85_zg_pad-2" x="3850" y="-1950"/><use xlink:href="#m9Vz9ETyzJ_MMEA85_zg_pad-2" x="3850" y="-2050"/><use xlink:href="#m9Vz9ETyzJ_MMEA85_zg_pad-2" x="3850" y="-2150"/><use xlink:href="#m9Vz9ETyzJ_MMEA85_zg_pad-2" x="3850" y="-2250"/><use xlink:href="#m9Vz9ETyzJ_MMEA85_zg_pad-2" x="3850" y="-2350"/><use xlink:href="#m9Vz9ETyzJ_MMEA85_zg_pad-2" x="3850" y="-2450"/><use xlink:href="#m9Vz9ETyzJ_MMEA85_zg_pad-2" x="3850" y="-2550"/><use xlink:href="#m9Vz9ETyzJ_MMEA85_zg_pad-2" x="3850" y="-2650"/><use xlink:href="#m9Vz9ETyzJ_MMEA85_zg_pad-2" x="3850" y="-2750"/><use xlink:href="#m9Vz9ETyzJ_MMEA85_zg_pad-2" x="3850" y="-2850"/><use xlink:href="#m9Vz9ETyzJ_MMEA85_zg_pad-2" x="3850" y="-2950"/><use xlink:href="#m9Vz9ETyzJ_MMEA85_zg_pad-2" x="3850" y="-3050"/><use xlink:href="#m9Vz9ETyzJ_MMEA85_zg_pad-2" x="3850" y="-3150"/><use xlink:href="#m9Vz9ETyzJ_MMEA85_zg_pad-2" x="3850" y="-3250"/><use xlink:href="#m9Vz9ETyzJ_MMEA85_zg_pad-2" x="3850" y="-3350"/><use xlink:href="#m9Vz9ETyzJ_MMEA85_zg_pad-2" x="3850" y="-3450"/><use xlink:href="#m9Vz9ETyzJ_MMEA85_zg_pad-2" x="3850" y="-3550"/><use xlink:href="#m9Vz9ETyzJ_MMEA85_zg_pad-2" x="3850" y="-3650"/><use xlink:href="#m9Vz9ETyzJ_MMEA85_zg_pad-2" x="3850" y="-3750"/><use xlink:href="#m9Vz9ETyzJ_MMEA85_zg_pad-2" x="4100" y="-3740.9"/><use xlink:href="#m9Vz9ETyzJ_MMEA85_zg_pad-2" x="4200" y="-3740.9"/><use xlink:href="#m9Vz9ETyzJ_MMEA85_zg_pad-2" x="4300" y="-3740.9"/><use xlink:href="#m9Vz9ETyzJ_MMEA85_zg_pad-2" x="4550" y="-1850"/><use xlink:href="#m9Vz9ETyzJ_MMEA85_zg_pad-2" x="4550" y="-1950"/><use xlink:href="#m9Vz9ETyzJ_MMEA85_zg_pad-2" x="4550" y="-2050"/><use xlink:href="#m9Vz9ETyzJ_MMEA85_zg_pad-2" x="4550" y="-2150"/><use xlink:href="#m9Vz9ETyzJ_MMEA85_zg_pad-2" x="4550" y="-2250"/><use xlink:href="#m9Vz9ETyzJ_MMEA85_zg_pad-2" x="4550" y="-2350"/><use xlink:href="#m9Vz9ETyzJ_MMEA85_zg_pad-2" x="4550" y="-2450"/><use xlink:href="#m9Vz9ETyzJ_MMEA85_zg_pad-2" x="4550" y="-2550"/><use xlink:href="#m9Vz9ETyzJ_MMEA85_zg_pad-2" x="4550" y="-2650"/><use xlink:href="#m9Vz9ETyzJ_MMEA85_zg_pad-2" x="4550" y="-2750"/><use xlink:href="#m9Vz9ETyzJ_MMEA85_zg_pad-2" x="4550" y="-2850"/><use xlink:href="#m9Vz9ETyzJ_MMEA85_zg_pad-2" x="4550" y="-2950"/><use xlink:href="#m9Vz9ETyzJ_MMEA85_zg_pad-2" x="4550" y="-3050"/><use xlink:href="#m9Vz9ETyzJ_MMEA85_zg_pad-2" x="4550" y="-3150"/><use xlink:href="#m9Vz9ETyzJ_MMEA85_zg_pad-2" x="4550" y="-3250"/><use xlink:href="#m9Vz9ETyzJ_MMEA85_zg_pad-2" x="4550" y="-3350"/><use xlink:href="#m9Vz9ETyzJ_MMEA85_zg_pad-2" x="4550" y="-3450"/><use xlink:href="#m9Vz9ETyzJ_MMEA85_zg_pad-2" x="4550" y="-3550"/><use xlink:href="#m9Vz9ETyzJ_MMEA85_zg_pad-2" x="4550" y="-3650"/><use xlink:href="#m9Vz9ETyzJ_MMEA85_zg_pad-2" x="4550" y="-3750"/></g><g id="atUKypFE3zCdUizfNEXS_bottom_drill2" transform="scale(25.4,25.4)"><use xlink:href="#nBSaqpKtZQ31gjwFKPBb_pad-1" x="4104.5" y="-1974.4"/><use xlink:href="#nBSaqpKtZQ31gjwFKPBb_pad-1" x="4295.5" y="-1974.4"/><use xlink:href="#nBSaqpKtZQ31gjwFKPBb_pad-2" x="4092.7" y="-1855.1"/><use xlink:href="#nBSaqpKtZQ31gjwFKPBb_pad-2" x="4307.3" y="-1855.1"/><use xlink:href="#nBSaqpKtZQ31gjwFKPBb_pad-3" x="2025" y="-1975"/><use xlink:href="#nBSaqpKtZQ31gjwFKPBb_pad-3" x="2025" y="-3475"/><use xlink:href="#nBSaqpKtZQ31gjwFKPBb_pad-3" x="2025" y="-4975"/><use xlink:href="#nBSaqpKtZQ31gjwFKPBb_pad-3" x="3525" y="-1975"/><use xlink:href="#nBSaqpKtZQ31gjwFKPBb_pad-3" x="3525" y="-4975"/><use xlink:href="#nBSaqpKtZQ31gjwFKPBb_pad-3" x="5025" y="-1975"/><use xlink:href="#nBSaqpKtZQ31gjwFKPBb_pad-3" x="5025" y="-4975"/><use xlink:href="#nBSaqpKtZQ31gjwFKPBb_pad-3" x="6525" y="-1975"/><use xlink:href="#nBSaqpKtZQ31gjwFKPBb_pad-3" x="6525" y="-4975"/><use xlink:href="#nBSaqpKtZQ31gjwFKPBb_pad-3" x="8025" y="-1975"/><use xlink:href="#nBSaqpKtZQ31gjwFKPBb_pad-3" x="8025" y="-4975"/><use xlink:href="#nBSaqpKtZQ31gjwFKPBb_pad-3" x="9525" y="-1975"/><use xlink:href="#nBSaqpKtZQ31gjwFKPBb_pad-3" x="9525" y="-4975"/><use xlink:href="#nBSaqpKtZQ31gjwFKPBb_pad-3" x="11025" y="-1975"/><use xlink:href="#nBSaqpKtZQ31gjwFKPBb_pad-3" x="11025" y="-3475"/><use xlink:href="#nBSaqpKtZQ31gjwFKPBb_pad-3" x="11025" y="-4975"/></g><clipPath id="atUKypFE3zCdUizfNEXS_bottom_outline"><path d="M 46355 -50165 A 5080 5080 0 0 0 51435 -45085 L 280035 -45085 A 5080 5080 0 0 0 285115 -50165 L 285115 -126365 A 5080 5080 0 0 0 280035 -131445 L 51435 -131445 A 5080 5080 0 0 0 46355 -126365 L 46355 -50165" fill="none" stroke-width="50"/></clipPath><mask id="atUKypFE3zCdUizfNEXS_bottom_mech-mask"><g fill="#000" stroke="#000"><rect x="46355" y="-131445" width="238760" height="86360" fill="#fff"/><use xlink:href="#atUKypFE3zCdUizfNEXS_bottom_drill1"/><use xlink:href="#atUKypFE3zCdUizfNEXS_bottom_drill2"/></g></mask><mask id="atUKypFE3zCdUizfNEXS_bottom_cf-mask"><g fill="#fff" stroke="#fff"><use xlink:href="#atUKypFE3zCdUizfNEXS_bottom_soldermask"/></g></mask><mask id="atUKypFE3zCdUizfNEXS_bottom_sm-mask"><g fill="#000" stroke="#000"><rect x="46355" y="-131445" width="238760" height="86360" fill="#fff"/><use xlink:href="#atUKypFE3zCdUizfNEXS_bottom_soldermask"/></g></mask></defs><g transform="translate(0,-176530) scale(1,-1)"><g mask="url(#atUKypFE3zCdUizfNEXS_bottom_mech-mask)" clip-path="url(#atUKypFE3zCdUizfNEXS_bottom_outline)" transform="translate(331470,0) scale(-1,1)"><rect x="46355" y="-131445" width="238760" height="86360" fill="currentColor" class="atUKypFE3zCdUizfNEXS_fr4"/><use xlink:href="#atUKypFE3zCdUizfNEXS_bottom_copper" fill="currentColor" stroke="currentColor" class="atUKypFE3zCdUizfNEXS_cu"/><use xlink:href="#atUKypFE3zCdUizfNEXS_bottom_copper" fill="currentColor" stroke="currentColor" class="atUKypFE3zCdUizfNEXS_cf" mask="url(#atUKypFE3zCdUizfNEXS_bottom_cf-mask)"/><g mask="url(#atUKypFE3zCdUizfNEXS_bottom_sm-mask)"><rect x="46355" y="-131445" width="238760" height="86360" fill="currentColor" class="atUKypFE3zCdUizfNEXS_sm"/></g></g></g></svg>